<?xml version="1.0" encoding="UTF-8" standalone="no"?>
<!DOCTYPE svg PUBLIC "-//W3C//DTD SVG 1.1//EN" "http://www.w3.org/Graphics/SVG/1.1/DTD/svg11.dtd">
<svg width="100%" height="100%" viewBox="0 0 1651 335" version="1.1" xmlns="http://www.w3.org/2000/svg" xmlns:xlink="http://www.w3.org/1999/xlink" xml:space="preserve" xmlns:serif="http://www.serif.com/" style="fill-rule:evenodd;clip-rule:evenodd;stroke-linecap:round;stroke-linejoin:round;stroke-miterlimit:1.5;">
    <g transform="matrix(1,0,0,1,-363.547,-783.912)">
        <g>
            <ellipse cx="708.379" cy="865.539" rx="344.832" ry="79.343" style="fill:url(#_Linear1);"/>
            <g transform="matrix(1,0,0,1,-106.665,487.075)">
                <g transform="matrix(150,0,0,150,560.171,417.319)">
                </g>
                <text x="510.22px" y="417.319px" style="font-family:'ArialMT', 'Arial', sans-serif;font-size:150px;">-</text>
            </g>
            <g transform="matrix(1,0,0,1,390.863,497.677)">
                <g transform="matrix(150,0,0,150,597.818,417.319)">
                </g>
                <text x="510.22px" y="417.319px" style="font-family:'ArialMT', 'Arial', sans-serif;font-size:150px;">+</text>
            </g>
            <g transform="matrix(1,0,0,1,224.409,379.842)">
                <circle cx="484.252" cy="484.252" r="11.811"/>
            </g>
        </g>
        <g transform="matrix(1,0,0,1,961.148,-2.2853)">
            <ellipse cx="708.379" cy="865.539" rx="344.832" ry="79.343" style="fill:url(#_Linear2);"/>
            <g transform="matrix(1,0,0,1,-106.665,487.075)">
                <g transform="matrix(150,0,0,150,560.171,417.319)">
                </g>
                <text x="510.22px" y="417.319px" style="font-family:'ArialMT', 'Arial', sans-serif;font-size:150px;">-</text>
            </g>
            <g transform="matrix(1,0,0,1,390.863,497.677)">
                <g transform="matrix(150,0,0,150,597.818,417.319)">
                </g>
                <text x="510.22px" y="417.319px" style="font-family:'ArialMT', 'Arial', sans-serif;font-size:150px;">+</text>
            </g>
            <g transform="matrix(1,0,0,1,224.409,379.842)">
                <circle cx="484.252" cy="484.252" r="11.811"/>
            </g>
        </g>
        <path d="M708.379,944.882L708.379,1015.75L1669.53,1015.75L1669.53,944.882" style="fill:none;stroke:black;stroke-width:4.17px;"/>
        <g transform="matrix(1,0,0,1,9.40703,41.8862)">
            <g transform="matrix(150,0,0,150,1198.63,1077.02)">
            </g>
            <text x="1148.67px" y="1077.03px" style="font-family:'ArialMT', 'Arial', sans-serif;font-size:150px;">r</text>
        </g>
    </g>
    <defs>
        <linearGradient id="_Linear1" x1="0" y1="0" x2="1" y2="0" gradientUnits="userSpaceOnUse" gradientTransform="matrix(689.665,0,0,158.685,363.547,786.197)"><stop offset="0" style="stop-color:rgb(252,174,187);stop-opacity:1"/><stop offset="1" style="stop-color:rgb(157,231,215);stop-opacity:1"/></linearGradient>
        <linearGradient id="_Linear2" x1="0" y1="0" x2="1" y2="0" gradientUnits="userSpaceOnUse" gradientTransform="matrix(689.665,0,0,158.685,363.547,786.197)"><stop offset="0" style="stop-color:rgb(252,174,187);stop-opacity:1"/><stop offset="1" style="stop-color:rgb(157,231,215);stop-opacity:1"/></linearGradient>
    </defs>
</svg>
