<?xml version="1.0" encoding="utf-8" standalone="no"?>
<!-- Generator: DataGraph - https://www.visualdatatools.com/DataGraph/index.html  --><!DOCTYPE svg PUBLIC "-//W3C//DTD SVG 1.1//EN" "http://www.w3.org/Graphics/SVG/1.1/DTD/svg11.dtd">
<svg width="640" height="329" version="1.1" xmlns="http://www.w3.org/2000/svg" xmlns:xlink="http://www.w3.org/1999/xlink">
<g>
  <!-- Background -->
  <g id="Background">
    <path d="M 48 281 L 614 281 L 614 16 L 48 16 L 48 281 z "
      fill="rgb(206,253,250)" stroke="none"/>
  </g>
  <!-- Commands -->
  <g id="Commands">
    <!-- F -->
    <g id="F">
      <defs>
        <clipPath id="clipPath">
          <rect x="48" y="16" width="566" height="265"/>
        </clipPath>
      </defs>
      <g clip-path="url(#clipPath)">
        <g>
          <path d="M 48.566 281 L 48.566 214.75 L 49.132 211.038 L 50.264 215.482 L 50.83 215.928 L 51.962 255.461 
                   L 52.528 255.462 L 53.094 258.721 L 53.66 262.789 L 54.226 265.087 L 55.358 265.305 
                   L 55.924 266.721 L 57.056 271.156 L 57.622 270.321 L 58.754 261.351 L 59.32 259.909 
                   L 59.886 256.402 L 60.452 255.186 L 61.018 254.992 L 61.584 254.583 L 62.15 255.007 
                   L 63.848 248.773 L 64.98 248.91 L 65.546 247.079 L 66.112 246.985 L 66.678 246.432 
                   L 67.244 244.379 L 68.376 247.338 L 68.942 247.798 L 69.508 254.267 L 70.074 253.427 
                   L 71.206 205.859 L 71.772 209.456 L 72.338 215.786 L 72.904 217.491 L 73.47 222.239 
                   L 74.036 230.769 L 74.602 234.46 L 75.168 230.913 L 75.734 229.064 L 76.866 232.469 
                   L 77.432 232.533 L 77.998 232.796 L 78.564 235.012 L 79.13 236.779 L 80.262 225.273 
                   L 81.394 229.224 L 81.96 228.115 L 82.526 224.412 L 83.092 222.063 L 84.224 218.933 
                   L 84.79 215.617 L 85.356 214.527 L 85.922 214.645 L 86.488 211.965 L 87.62 205.558 
                   L 88.186 209.533 L 88.752 215.503 L 89.318 217.924 L 89.884 217.482 L 90.45 210.892 
                   L 91.016 202.837 L 91.582 196.549 L 92.148 186.9 L 92.714 179.146 L 93.28 179.458 
                   L 94.412 189.329 L 94.978 190.343 L 96.11 191.884 L 96.676 194.428 L 97.242 198.759 
                   L 98.374 203.41 L 98.94 207.084 L 99.506 209.128 L 100.072 214.61 L 100.638 228.106 
                   L 101.204 236.64 L 101.77 237.042 L 102.902 233.807 L 104.034 221.122 L 104.6 218.626 
                   L 105.166 214.767 L 105.732 213.36 L 106.298 215 L 106.864 221.058 L 107.43 216.109 
                   L 107.996 204.679 L 108.562 205.41 L 109.128 204.797 L 109.694 204.714 L 110.26 208.067 
                   L 110.826 209.816 L 111.392 209.845 L 111.958 210.431 L 112.524 212.566 L 113.09 211.731 
                   L 113.656 211.378 L 114.788 217.399 L 115.92 221.155 L 116.486 221.248 L 117.052 217.654 
                   L 117.618 224.281 L 118.184 232.502 L 118.75 230.35 L 119.316 229.962 L 119.882 235.316 
                   L 120.448 239.1 L 121.58 234.884 L 122.146 234.828 L 122.712 238.625 L 123.278 234.751 
                   L 123.844 226.088 L 124.41 225.108 L 125.542 225.47 L 126.674 225.146 L 127.24 227.257 
                   L 127.806 226.311 L 128.938 219.99 L 129.504 215.394 L 130.07 213.627 L 130.636 215.394 
                   L 131.202 214.082 L 132.334 206.293 L 132.9 204.804 L 133.466 206.911 L 134.032 206.02 
                   L 134.598 206.764 L 135.164 206.182 L 136.296 187.727 L 136.862 183.867 L 137.428 178.279 
                   L 137.994 173.911 L 138.56 166.13 L 139.126 160.297 L 139.692 160.025 L 140.824 154.43 
                   L 141.39 155.677 L 141.956 159.236 L 142.522 159.388 L 143.088 157.458 L 143.654 155.892 
                   L 144.22 148.686 L 144.786 143.978 L 145.352 144.733 L 146.484 132.528 L 147.05 147.079 
                   L 147.616 164.74 L 148.182 168.03 L 149.314 177.349 L 149.88 176.28 L 150.446 174.902 
                   L 151.012 175.701 L 152.144 172.179 L 153.276 172.32 L 153.842 175.317 L 154.408 177.349 
                   L 154.974 177.575 L 155.54 182.028 L 156.106 185.336 L 156.672 191.624 L 157.238 195.031 
                   L 157.804 193.933 L 158.37 200.047 L 158.936 187.5 L 159.502 170.951 L 160.634 176.605 
                   L 161.2 176.199 L 161.766 174.38 L 162.332 171.62 L 162.898 168.023 L 164.03 167.017 
                   L 164.596 166.738 L 165.162 168.615 L 165.728 168.331 L 166.294 168.487 L 166.86 168.942 
                   L 167.426 170.509 L 167.992 171.485 L 168.558 169.167 L 169.124 176.943 L 169.69 179.481 
                   L 170.256 174.153 L 170.822 175.94 L 171.388 172.25 L 171.954 166.877 L 172.52 165.089 
                   L 173.086 165.061 L 173.652 166.912 L 174.218 169.82 L 174.784 169.184 L 175.35 171.156 
                   L 175.916 174.965 L 176.482 174.899 L 177.614 168.814 L 178.746 154.818 L 179.312 152.866 
                   L 179.878 151.363 L 180.444 151.975 L 181.01 150.246 L 181.576 151.453 L 182.142 154.422 
                   L 182.708 156.734 L 183.84 145.587 L 184.406 148.569 L 184.972 148.718 L 185.538 140.912 
                   L 186.104 135.901 L 186.67 137.96 L 187.236 137.751 L 188.368 138.338 L 188.934 136.373 
                   L 189.5 133.937 L 190.066 134.216 L 191.198 141.588 L 192.33 147.698 L 192.896 149.955 
                   L 193.462 151.726 L 194.594 149.388 L 195.726 182.038 L 196.292 184.835 L 196.858 185.034 
                   L 197.424 183.185 L 198.556 175.218 L 199.122 172.272 L 199.688 172.067 L 200.254 172.541 
                   L 200.82 172.259 L 201.386 168.914 L 201.952 162.434 L 202.518 161.556 L 203.65 186.699 
                   L 204.216 190.719 L 204.782 191.672 L 205.348 190.27 L 206.48 191.283 L 207.046 191.526 
                   L 208.178 195.002 L 208.744 199.681 L 209.31 202.925 L 210.442 203.342 L 211.574 197.489 
                   L 212.14 195.799 L 213.272 201.725 L 213.838 202.327 L 214.404 202.4 L 215.536 244.262 
                   L 216.102 244.278 L 217.234 244.719 L 217.8 246.781 L 218.366 246.959 L 218.932 244.854 
                   L 219.498 244.967 L 220.064 245.273 L 220.63 246.282 L 221.196 245.816 L 221.762 244.708 
                   L 222.328 247.235 L 222.894 246.016 L 223.46 241.506 L 224.026 238.666 L 224.592 239.175 
                   L 225.158 238.739 L 225.724 226.205 L 226.29 217.701 L 226.856 219.254 L 227.422 216.11 
                   L 227.988 210.608 L 228.554 208.476 L 229.686 212.53 L 230.252 213.012 L 230.818 202.242 
                   L 231.384 193.956 L 231.95 209.95 L 232.516 213.591 L 233.082 198.253 L 233.648 191.197 
                   L 234.214 187.981 L 235.346 188.59 L 235.912 190.994 L 236.478 196.676 L 237.044 203.617 
                   L 237.61 207.06 L 238.176 204.809 L 238.742 201.198 L 239.308 200.116 L 239.874 202.422 
                   L 240.44 202.056 L 241.006 200.005 L 241.572 202.558 L 242.704 202.56 L 243.27 202.86 
                   L 243.836 198.213 L 244.402 181.134 L 244.968 168.113 L 245.534 168.846 L 246.1 167.979 
                   L 247.232 173.817 L 247.798 173.8 L 248.93 170.046 L 249.496 170.053 L 250.628 167.319 
                   L 251.194 173.336 L 251.76 177.403 L 252.326 175.286 L 252.892 172.666 L 253.458 173.415 
                   L 254.024 177.159 L 254.59 171.37 L 255.156 161.764 L 255.722 158.88 L 256.288 163.23 
                   L 256.854 184.061 L 257.42 197.873 L 257.986 192.313 L 258.552 191.137 L 259.118 196.14 
                   L 259.684 192.009 L 260.25 206.975 L 260.816 229.773 L 261.382 226.607 L 261.948 221.55 
                   L 262.514 221.486 L 263.08 230.297 L 263.646 237.231 L 264.212 237.046 L 264.778 236.279 
                   L 265.91 227.169 L 266.476 226.527 L 267.042 226.272 L 267.608 225.7 L 268.174 229.309 
                   L 268.74 230.973 L 269.306 228.4 L 269.872 224.926 L 270.438 223.712 L 271.004 221.19 
                   L 271.57 215.459 L 272.136 214.049 L 272.702 213.993 L 273.834 209.035 L 274.966 208.305 
                   L 275.532 206.408 L 276.098 203.692 L 276.664 200.325 L 277.23 199.633 L 277.796 199.351 
                   L 279.494 193.764 L 280.06 193.472 L 280.626 195.757 L 281.192 193.602 L 281.758 185.728 
                   L 282.324 180.797 L 282.89 179.4 L 284.022 146.685 L 284.588 150.869 L 285.154 153.278 
                   L 286.286 156.073 L 286.852 151.257 L 287.418 147.398 L 287.984 150.153 L 288.55 152.193 
                   L 289.116 150.983 L 289.682 147.826 L 290.814 147.758 L 291.38 148.496 L 291.946 150.89 
                   L 292.512 152.408 L 293.078 152.258 L 293.644 152.996 L 294.21 157.15 L 294.776 158.61 
                   L 295.342 156.528 L 295.908 156.36 L 297.04 140.853 L 298.172 144.902 L 299.87 152.965 
                   L 301.002 151.993 L 301.568 152.619 L 302.134 152.73 L 303.832 158.987 L 304.398 161.582 
                   L 304.964 160.915 L 305.53 157.479 L 306.096 158.46 L 306.662 152.37 L 307.228 141.61 
                   L 308.36 91.1987 L 308.926 93.1091 L 309.492 98.9819 L 310.624 98.2219 L 311.19 98.1876 
                   L 311.756 97.3576 L 312.322 89.8473 L 312.888 86.7604 L 314.02 110.502 L 314.586 112.226 
                   L 315.152 109.761 L 315.718 104.732 L 316.284 105.407 L 316.85 106.682 L 317.416 106.745 
                   L 317.982 105.653 L 318.548 104.256 L 319.114 103.775 L 320.246 99.4701 L 320.812 96.5651 
                   L 321.944 89.3773 L 323.076 93.9648 L 324.208 87.3131 L 324.774 87.2289 L 325.34 86.8645 
                   L 325.906 86.7494 L 326.472 86.8669 L 327.038 86.8301 L 327.604 81.7007 L 328.17 78.2382 
                   L 328.736 81.9444 L 329.302 89.1172 L 329.868 99.734 L 330.434 105.372 L 331 105.632 
                   L 331.566 106.557 L 332.132 109.856 L 333.264 100.062 L 334.396 103.67 L 334.962 103.771 
                   L 335.528 101.399 L 336.094 100.836 L 337.226 105.372 L 338.358 102.237 L 338.924 104.355 
                   L 340.056 94.8862 L 340.622 97.6113 L 341.188 98.759 L 341.754 105.753 L 342.32 109.619 
                   L 342.886 111.43 L 343.452 116.567 L 344.018 118.273 L 344.584 121.386 L 345.15 129.008 
                   L 345.716 133.492 L 346.282 131.845 L 346.848 134.114 L 347.414 141.762 L 347.98 152.827 
                   L 348.546 156.791 L 349.112 156.518 L 349.678 157.874 L 350.244 157.573 L 350.81 155.794 
                   L 351.376 152.079 L 351.942 150.918 L 352.508 148.251 L 353.074 140.039 L 353.64 135.53 
                   L 354.206 133.912 L 354.772 131.934 L 355.904 117.048 L 356.47 114.978 L 357.036 112.5 
                   L 358.168 115.593 L 358.734 115.284 L 359.3 115.776 L 359.866 117.707 L 360.432 113.772 
                   L 360.998 107.8 L 361.564 109.202 L 362.13 108.557 L 362.696 106.22 L 364.394 100.796 
                   L 365.526 111.043 L 366.092 109.164 L 366.658 110.297 L 367.224 98.6628 L 367.79 81.5359 
                   L 368.356 76.8446 L 369.488 73.0597 L 370.054 76.8132 L 370.62 71.1249 L 371.186 59.8962 
                   L 371.752 61.5692 L 372.318 64.7809 L 373.45 69.3697 L 374.016 68.8657 L 374.582 68.5344 
                   L 375.148 67.4448 L 375.714 65.7911 L 376.846 68.5464 L 377.412 68.418 L 377.978 64.9532 
                   L 378.544 60.8327 L 379.11 60.885 L 379.676 64.7831 L 380.242 72.608 L 380.808 76.8205 
                   L 381.374 76.2329 L 382.506 75.4204 L 383.072 75.4498 L 383.638 74.0158 L 384.204 71.9859 
                   L 384.77 69.0521 L 385.336 68.2212 L 385.902 70.2796 L 386.468 70.0936 L 387.6 71.74 
                   L 388.732 66.2136 L 389.298 63.0624 L 389.864 62.5256 L 390.43 62.3604 L 390.996 58.6486 
                   L 391.562 50.0139 L 392.128 52.3348 L 392.694 61.9385 L 393.26 62.4751 L 393.826 62.8576 
                   L 394.392 62.2488 L 394.958 59.601 L 395.524 59.4636 L 396.09 54.2667 L 396.656 47.1398 
                   L 397.222 43.6768 L 397.788 42.5544 L 398.354 42.2286 L 398.92 40.0172 L 399.486 38.6195 
                   L 400.052 39.6284 L 400.618 44.342 L 401.184 43.4035 L 401.75 40.1404 L 402.316 41.5949 
                   L 402.882 43.4448 L 403.448 47.7061 L 404.014 49.4313 L 405.146 42.7766 L 405.712 40.7884 
                   L 406.844 50.1626 L 407.41 48.7154 L 407.976 46.6314 L 409.108 45.9227 L 409.674 42.6808 
                   L 410.806 40.4992 L 411.372 37.6208 L 411.938 39.915 L 412.504 41.7264 L 413.07 41.0551 
                   L 414.202 29.9116 L 414.768 30.1487 L 415.334 28.1955 L 415.9 30.0146 L 416.466 37.7034 
                   L 417.032 43.8652 L 417.598 39.9163 L 418.164 37.4742 L 418.73 43.7266 L 419.296 43.3998 
                   L 419.862 49.7271 L 420.428 58.2261 L 421.56 56.238 L 422.126 53.244 L 422.692 48.9478 
                   L 423.258 46.8608 L 423.824 43.9837 L 424.39 42.5212 L 424.956 45.9393 L 425.522 47.8773 
                   L 426.088 50.4416 L 426.654 50.6246 L 427.22 52.4704 L 427.786 61.6708 L 428.352 66.454 
                   L 429.484 93.969 L 430.05 96.0111 L 430.616 96.2344 L 431.182 94.7849 L 431.748 104.354 
                   L 432.314 136.27 L 432.88 158.599 L 434.012 153.079 L 434.578 153.019 L 436.842 165.429 
                   L 437.408 163.123 L 437.974 163.689 L 438.54 163.593 L 439.106 160.715 L 439.672 159.849 
                   L 440.804 155.812 L 441.37 158.446 L 441.936 161.668 L 442.502 164.181 L 443.068 163.939 
                   L 443.634 161.319 L 444.766 170.688 L 445.332 170.798 L 445.898 171.082 L 446.464 172.819 
                   L 447.03 184.626 L 447.596 190.162 L 448.162 187.254 L 448.728 182.2 L 449.294 175.351 
                   L 449.86 175.271 L 450.426 176.888 L 451.558 143.765 L 452.124 141.697 L 452.69 138.213 
                   L 453.256 133.401 L 453.822 130.324 L 454.954 136.262 L 455.52 133.712 L 456.086 133.163 
                   L 456.652 135.156 L 457.218 135.103 L 458.35 131.001 L 458.916 131.239 L 459.482 131.099 
                   L 460.614 119.662 L 461.18 121.766 L 461.746 125.922 L 462.312 127.647 L 462.878 127.585 
                   L 463.444 127.69 L 464.01 130.047 L 464.576 129.638 L 465.142 126.874 L 465.708 126.817 
                   L 466.274 125.537 L 467.406 118.047 L 467.972 117.77 L 468.538 120.353 L 469.104 120.871 
                   L 470.236 116.496 L 470.802 117.648 L 471.368 116.608 L 471.934 112.786 L 473.066 122.678 
                   L 473.632 123.012 L 474.764 127.283 L 475.33 127.479 L 475.896 125.976 L 477.028 93.5653 
                   L 477.594 92.0249 L 478.726 92.4289 L 479.858 94.8196 L 480.424 94.8296 L 480.99 97.0268 
                   L 482.122 119.807 L 482.688 118.838 L 483.254 115.598 L 483.82 113.066 L 484.952 119.742 
                   L 485.518 110.083 L 486.084 110.161 L 486.65 120.416 L 487.216 120.358 L 487.782 120.068 
                   L 488.348 120.2 L 488.914 118.662 L 489.48 118.873 L 490.046 121.316 L 490.612 126.346 
                   L 491.178 134.163 L 491.744 140.3 L 492.31 140.514 L 492.876 137.617 L 493.442 135.448 
                   L 494.574 123.833 L 495.706 129.814 L 496.272 132.206 L 496.838 136.889 L 497.404 139.627 
                   L 497.97 139.226 L 498.536 134.909 L 499.102 131.684 L 499.668 132.08 L 500.234 134.276 
                   L 500.8 133.715 L 501.366 131.621 L 503.064 134.93 L 503.63 137.656 L 504.196 139.307 
                   L 505.328 143.967 L 505.894 142.422 L 506.46 141.375 L 507.026 141.954 L 507.592 141.904 
                   L 508.158 141.027 L 508.724 138.427 L 509.856 116.767 L 510.422 119.837 L 510.988 119.38 
                   L 511.554 115.442 L 512.12 113.523 L 512.686 112.017 L 513.252 112.095 L 514.384 115.795 
                   L 514.95 115.087 L 515.516 114.548 L 516.648 112.621 L 517.214 109.83 L 517.78 104.996 
                   L 518.346 102.958 L 518.912 102.637 L 520.044 111.379 L 520.61 113.915 L 521.742 134.558 
                   L 522.308 137.83 L 522.874 138.569 L 523.44 139.035 L 524.006 138.968 L 525.138 150.764 
                   L 525.704 151.552 L 526.27 154.678 L 526.836 155.073 L 527.402 150.578 L 527.968 149.922 
                   L 528.534 153.769 L 529.1 154.007 L 529.666 149.261 L 530.232 147.908 L 530.798 151.79 
                   L 531.364 149.537 L 531.93 145.017 L 532.496 145.202 L 533.062 144.587 L 533.628 129.319 
                   L 534.194 116.78 L 534.76 117.031 L 535.326 114.776 L 535.892 111.01 L 536.458 107.925 
                   L 537.024 108.381 L 538.156 134.622 L 538.722 136.6 L 539.288 136.161 L 539.854 134.069 
                   L 540.42 134.089 L 541.552 130.324 L 542.118 129.762 L 542.684 128.94 L 543.25 126.595 
                   L 543.816 126.713 L 544.382 132.515 L 544.948 133.695 L 545.514 133.375 L 546.08 133.601 
                   L 547.212 129.906 L 547.778 127.697 L 548.344 127.457 L 550.042 133.636 L 550.608 134.272 
                   L 551.174 132.701 L 551.74 133.853 L 552.306 133.853 L 552.872 132.655 L 553.438 134.41 
                   L 554.57 134.796 L 555.702 142.562 L 556.268 141.529 L 556.834 140.829 L 557.4 142.885 
                   L 557.966 143.002 L 558.532 143.569 L 559.664 140.101 L 560.23 140.32 L 560.796 138.183 
                   L 561.928 146.827 L 563.06 142.78 L 563.626 140.981 L 564.192 141.739 L 564.758 146.601 
                   L 565.324 149.115 L 565.89 149.613 L 566.456 151.717 L 567.022 151.35 L 567.588 151.523 
                   L 568.72 157.756 L 569.286 158.252 L 569.852 156.218 L 570.418 155.987 L 570.984 158.991 
                   L 571.55 163.397 L 572.116 166.819 L 573.248 181.795 L 574.38 171.869 L 574.946 174.311 
                   L 575.512 173.868 L 576.644 188.715 L 577.21 188.5 L 578.908 200.54 L 579.474 202.174 
                   L 580.04 204.46 L 580.606 207.453 L 581.172 208.005 L 581.738 209.458 L 582.304 209.496 
                   L 582.87 204.152 L 583.436 200.406 L 584.002 201.078 L 584.568 203.56 L 585.134 202.154 
                   L 585.7 195.897 L 586.266 193.742 L 586.832 196.404 L 587.964 188.174 L 588.53 188.007 
                   L 589.096 190.607 L 589.662 195.075 L 590.228 194.781 L 591.36 187.931 L 591.926 187.941 
                   L 592.492 190.871 L 593.058 188.466 L 593.624 185.145 L 594.19 192.679 L 594.756 201.677 
                   L 595.322 205.406 L 595.888 205.524 L 596.454 205.952 L 597.02 206.675 L 597.586 206.541 
                   L 598.718 192.79 L 599.284 188.814 L 599.85 182.002 L 600.416 184.101 L 600.982 187.091 
                   L 601.548 183.96 L 602.114 179.913 L 602.68 179.033 L 603.246 167.238 L 603.812 142.632 
                   L 604.378 133.007 L 604.944 136.367 L 606.076 140.219 L 606.642 139.692 L 607.208 143.531 
                   L 607.774 150.604 L 608.34 153.476 L 609.472 157.567 L 610.038 166.49 L 610.604 186.788 
                   L 611.17 197.443 L 611.736 188.718 L 612.302 184.077 L 612.868 188.942 L 613.434 189.833 
                   L 614 187.391 L 614 281 L 48.566 281 z "
            fill="rgb(248,218,253)" stroke="none"/>
          <path d="M 48.566 214.75 L 49.132 211.038 L 50.264 215.482 L 50.83 215.928 L 51.962 255.461 
                   L 52.528 255.462 L 53.094 258.721 L 53.66 262.789 L 54.226 265.087 L 55.358 265.305 
                   L 55.924 266.721 L 57.056 271.156 L 57.622 270.321 L 58.754 261.351 L 59.32 259.909 
                   L 59.886 256.402 L 60.452 255.186 L 61.018 254.992 L 61.584 254.583 L 62.15 255.007 
                   L 63.848 248.773 L 64.98 248.91 L 65.546 247.079 L 66.112 246.985 L 66.678 246.432 
                   L 67.244 244.379 L 68.376 247.338 L 68.942 247.798 L 69.508 254.267 L 70.074 253.427 
                   L 71.206 205.859 L 71.772 209.456 L 72.338 215.786 L 72.904 217.491 L 73.47 222.239 
                   L 74.036 230.769 L 74.602 234.46 L 75.168 230.913 L 75.734 229.064 L 76.866 232.469 
                   L 77.432 232.533 L 77.998 232.796 L 78.564 235.012 L 79.13 236.779 L 80.262 225.273 
                   L 81.394 229.224 L 81.96 228.115 L 82.526 224.412 L 83.092 222.063 L 84.224 218.933 
                   L 84.79 215.617 L 85.356 214.527 L 85.922 214.645 L 86.488 211.965 L 87.62 205.558 
                   L 88.186 209.533 L 88.752 215.503 L 89.318 217.924 L 89.884 217.482 L 90.45 210.892 
                   L 91.016 202.837 L 91.582 196.549 L 92.148 186.9 L 92.714 179.146 L 93.28 179.458 
                   L 94.412 189.329 L 94.978 190.343 L 96.11 191.884 L 96.676 194.428 L 97.242 198.759 
                   L 98.374 203.41 L 98.94 207.084 L 99.506 209.128 L 100.072 214.61 L 100.638 228.106 
                   L 101.204 236.64 L 101.77 237.042 L 102.902 233.807 L 104.034 221.122 L 104.6 218.626 
                   L 105.166 214.767 L 105.732 213.36 L 106.298 215 L 106.864 221.058 L 107.43 216.109 
                   L 107.996 204.679 L 108.562 205.41 L 109.128 204.797 L 109.694 204.714 L 110.26 208.067 
                   L 110.826 209.816 L 111.392 209.845 L 111.958 210.431 L 112.524 212.566 L 113.09 211.731 
                   L 113.656 211.378 L 114.788 217.399 L 115.92 221.155 L 116.486 221.248 L 117.052 217.654 
                   L 117.618 224.281 L 118.184 232.502 L 118.75 230.35 L 119.316 229.962 L 119.882 235.316 
                   L 120.448 239.1 L 121.58 234.884 L 122.146 234.828 L 122.712 238.625 L 123.278 234.751 
                   L 123.844 226.088 L 124.41 225.108 L 125.542 225.47 L 126.674 225.146 L 127.24 227.257 
                   L 127.806 226.311 L 128.938 219.99 L 129.504 215.394 L 130.07 213.627 L 130.636 215.394 
                   L 131.202 214.082 L 132.334 206.293 L 132.9 204.804 L 133.466 206.911 L 134.032 206.02 
                   L 134.598 206.764 L 135.164 206.182 L 136.296 187.727 L 136.862 183.867 L 137.428 178.279 
                   L 137.994 173.911 L 138.56 166.13 L 139.126 160.297 L 139.692 160.025 L 140.824 154.43 
                   L 141.39 155.677 L 141.956 159.236 L 142.522 159.388 L 143.088 157.458 L 143.654 155.892 
                   L 144.22 148.686 L 144.786 143.978 L 145.352 144.733 L 146.484 132.528 L 147.05 147.079 
                   L 147.616 164.74 L 148.182 168.03 L 149.314 177.349 L 149.88 176.28 L 150.446 174.902 
                   L 151.012 175.701 L 152.144 172.179 L 153.276 172.32 L 153.842 175.317 L 154.408 177.349 
                   L 154.974 177.575 L 155.54 182.028 L 156.106 185.336 L 156.672 191.624 L 157.238 195.031 
                   L 157.804 193.933 L 158.37 200.047 L 158.936 187.5 L 159.502 170.951 L 160.634 176.605 
                   L 161.2 176.199 L 161.766 174.38 L 162.332 171.62 L 162.898 168.023 L 164.03 167.017 
                   L 164.596 166.738 L 165.162 168.615 L 165.728 168.331 L 166.294 168.487 L 166.86 168.942 
                   L 167.426 170.509 L 167.992 171.485 L 168.558 169.167 L 169.124 176.943 L 169.69 179.481 
                   L 170.256 174.153 L 170.822 175.94 L 171.388 172.25 L 171.954 166.877 L 172.52 165.089 
                   L 173.086 165.061 L 173.652 166.912 L 174.218 169.82 L 174.784 169.184 L 175.35 171.156 
                   L 175.916 174.965 L 176.482 174.899 L 177.614 168.814 L 178.746 154.818 L 179.312 152.866 
                   L 179.878 151.363 L 180.444 151.975 L 181.01 150.246 L 181.576 151.453 L 182.142 154.422 
                   L 182.708 156.734 L 183.84 145.587 L 184.406 148.569 L 184.972 148.718 L 185.538 140.912 
                   L 186.104 135.901 L 186.67 137.96 L 187.236 137.751 L 188.368 138.338 L 188.934 136.373 
                   L 189.5 133.937 L 190.066 134.216 L 191.198 141.588 L 192.33 147.698 L 192.896 149.955 
                   L 193.462 151.726 L 194.594 149.388 L 195.726 182.038 L 196.292 184.835 L 196.858 185.034 
                   L 197.424 183.185 L 198.556 175.218 L 199.122 172.272 L 199.688 172.067 L 200.254 172.541 
                   L 200.82 172.259 L 201.386 168.914 L 201.952 162.434 L 202.518 161.556 L 203.65 186.699 
                   L 204.216 190.719 L 204.782 191.672 L 205.348 190.27 L 206.48 191.283 L 207.046 191.526 
                   L 208.178 195.002 L 208.744 199.681 L 209.31 202.925 L 210.442 203.342 L 211.574 197.489 
                   L 212.14 195.799 L 213.272 201.725 L 213.838 202.327 L 214.404 202.4 L 215.536 244.262 
                   L 216.102 244.278 L 217.234 244.719 L 217.8 246.781 L 218.366 246.959 L 218.932 244.854 
                   L 219.498 244.967 L 220.064 245.273 L 220.63 246.282 L 221.196 245.816 L 221.762 244.708 
                   L 222.328 247.235 L 222.894 246.016 L 223.46 241.506 L 224.026 238.666 L 224.592 239.175 
                   L 225.158 238.739 L 225.724 226.205 L 226.29 217.701 L 226.856 219.254 L 227.422 216.11 
                   L 227.988 210.608 L 228.554 208.476 L 229.686 212.53 L 230.252 213.012 L 230.818 202.242 
                   L 231.384 193.956 L 231.95 209.95 L 232.516 213.591 L 233.082 198.253 L 233.648 191.197 
                   L 234.214 187.981 L 235.346 188.59 L 235.912 190.994 L 236.478 196.676 L 237.044 203.617 
                   L 237.61 207.06 L 238.176 204.809 L 238.742 201.198 L 239.308 200.116 L 239.874 202.422 
                   L 240.44 202.056 L 241.006 200.005 L 241.572 202.558 L 242.704 202.56 L 243.27 202.86 
                   L 243.836 198.213 L 244.402 181.134 L 244.968 168.113 L 245.534 168.846 L 246.1 167.979 
                   L 247.232 173.817 L 247.798 173.8 L 248.93 170.046 L 249.496 170.053 L 250.628 167.319 
                   L 251.194 173.336 L 251.76 177.403 L 252.326 175.286 L 252.892 172.666 L 253.458 173.415 
                   L 254.024 177.159 L 254.59 171.37 L 255.156 161.764 L 255.722 158.88 L 256.288 163.23 
                   L 256.854 184.061 L 257.42 197.873 L 257.986 192.313 L 258.552 191.137 L 259.118 196.14 
                   L 259.684 192.009 L 260.25 206.975 L 260.816 229.773 L 261.382 226.607 L 261.948 221.55 
                   L 262.514 221.486 L 263.08 230.297 L 263.646 237.231 L 264.212 237.046 L 264.778 236.279 
                   L 265.91 227.169 L 266.476 226.527 L 267.042 226.272 L 267.608 225.7 L 268.174 229.309 
                   L 268.74 230.973 L 269.306 228.4 L 269.872 224.926 L 270.438 223.712 L 271.004 221.19 
                   L 271.57 215.459 L 272.136 214.049 L 272.702 213.993 L 273.834 209.035 L 274.966 208.305 
                   L 275.532 206.408 L 276.098 203.692 L 276.664 200.325 L 277.23 199.633 L 277.796 199.351 
                   L 279.494 193.764 L 280.06 193.472 L 280.626 195.757 L 281.192 193.602 L 281.758 185.728 
                   L 282.324 180.797 L 282.89 179.4 L 284.022 146.685 L 284.588 150.869 L 285.154 153.278 
                   L 286.286 156.073 L 286.852 151.257 L 287.418 147.398 L 287.984 150.153 L 288.55 152.193 
                   L 289.116 150.983 L 289.682 147.826 L 290.814 147.758 L 291.38 148.496 L 291.946 150.89 
                   L 292.512 152.408 L 293.078 152.258 L 293.644 152.996 L 294.21 157.15 L 294.776 158.61 
                   L 295.342 156.528 L 295.908 156.36 L 297.04 140.853 L 298.172 144.902 L 299.87 152.965 
                   L 301.002 151.993 L 301.568 152.619 L 302.134 152.73 L 303.832 158.987 L 304.398 161.582 
                   L 304.964 160.915 L 305.53 157.479 L 306.096 158.46 L 306.662 152.37 L 307.228 141.61 
                   L 308.36 91.1987 L 308.926 93.1091 L 309.492 98.9819 L 310.624 98.2219 L 311.19 98.1876 
                   L 311.756 97.3576 L 312.322 89.8473 L 312.888 86.7604 L 314.02 110.502 L 314.586 112.226 
                   L 315.152 109.761 L 315.718 104.732 L 316.284 105.407 L 316.85 106.682 L 317.416 106.745 
                   L 317.982 105.653 L 318.548 104.256 L 319.114 103.775 L 320.246 99.4701 L 320.812 96.5651 
                   L 321.944 89.3773 L 323.076 93.9648 L 324.208 87.3131 L 324.774 87.2289 L 325.34 86.8645 
                   L 325.906 86.7494 L 326.472 86.8669 L 327.038 86.8301 L 327.604 81.7007 L 328.17 78.2382 
                   L 328.736 81.9444 L 329.302 89.1172 L 329.868 99.734 L 330.434 105.372 L 331 105.632 
                   L 331.566 106.557 L 332.132 109.856 L 333.264 100.062 L 334.396 103.67 L 334.962 103.771 
                   L 335.528 101.399 L 336.094 100.836 L 337.226 105.372 L 338.358 102.237 L 338.924 104.355 
                   L 340.056 94.8862 L 340.622 97.6113 L 341.188 98.759 L 341.754 105.753 L 342.32 109.619 
                   L 342.886 111.43 L 343.452 116.567 L 344.018 118.273 L 344.584 121.386 L 345.15 129.008 
                   L 345.716 133.492 L 346.282 131.845 L 346.848 134.114 L 347.414 141.762 L 347.98 152.827 
                   L 348.546 156.791 L 349.112 156.518 L 349.678 157.874 L 350.244 157.573 L 350.81 155.794 
                   L 351.376 152.079 L 351.942 150.918 L 352.508 148.251 L 353.074 140.039 L 353.64 135.53 
                   L 354.206 133.912 L 354.772 131.934 L 355.904 117.048 L 356.47 114.978 L 357.036 112.5 
                   L 358.168 115.593 L 358.734 115.284 L 359.3 115.776 L 359.866 117.707 L 360.432 113.772 
                   L 360.998 107.8 L 361.564 109.202 L 362.13 108.557 L 362.696 106.22 L 364.394 100.796 
                   L 365.526 111.043 L 366.092 109.164 L 366.658 110.297 L 367.224 98.6628 L 367.79 81.5359 
                   L 368.356 76.8446 L 369.488 73.0597 L 370.054 76.8132 L 370.62 71.1249 L 371.186 59.8962 
                   L 371.752 61.5692 L 372.318 64.7809 L 373.45 69.3697 L 374.016 68.8657 L 374.582 68.5344 
                   L 375.148 67.4448 L 375.714 65.7911 L 376.846 68.5464 L 377.412 68.418 L 377.978 64.9532 
                   L 378.544 60.8327 L 379.11 60.885 L 379.676 64.7831 L 380.242 72.608 L 380.808 76.8205 
                   L 381.374 76.2329 L 382.506 75.4204 L 383.072 75.4498 L 383.638 74.0158 L 384.204 71.9859 
                   L 384.77 69.0521 L 385.336 68.2212 L 385.902 70.2796 L 386.468 70.0936 L 387.6 71.74 
                   L 388.732 66.2136 L 389.298 63.0624 L 389.864 62.5256 L 390.43 62.3604 L 390.996 58.6486 
                   L 391.562 50.0139 L 392.128 52.3348 L 392.694 61.9385 L 393.26 62.4751 L 393.826 62.8576 
                   L 394.392 62.2488 L 394.958 59.601 L 395.524 59.4636 L 396.09 54.2667 L 396.656 47.1398 
                   L 397.222 43.6768 L 397.788 42.5544 L 398.354 42.2286 L 398.92 40.0172 L 399.486 38.6195 
                   L 400.052 39.6284 L 400.618 44.342 L 401.184 43.4035 L 401.75 40.1404 L 402.316 41.5949 
                   L 402.882 43.4448 L 403.448 47.7061 L 404.014 49.4313 L 405.146 42.7766 L 405.712 40.7884 
                   L 406.844 50.1626 L 407.41 48.7154 L 407.976 46.6314 L 409.108 45.9227 L 409.674 42.6808 
                   L 410.806 40.4992 L 411.372 37.6208 L 411.938 39.915 L 412.504 41.7264 L 413.07 41.0551 
                   L 414.202 29.9116 L 414.768 30.1487 L 415.334 28.1955 L 415.9 30.0146 L 416.466 37.7034 
                   L 417.032 43.8652 L 417.598 39.9163 L 418.164 37.4742 L 418.73 43.7266 L 419.296 43.3998 
                   L 419.862 49.7271 L 420.428 58.2261 L 421.56 56.238 L 422.126 53.244 L 422.692 48.9478 
                   L 423.258 46.8608 L 423.824 43.9837 L 424.39 42.5212 L 424.956 45.9393 L 425.522 47.8773 
                   L 426.088 50.4416 L 426.654 50.6246 L 427.22 52.4704 L 427.786 61.6708 L 428.352 66.454 
                   L 429.484 93.969 L 430.05 96.0111 L 430.616 96.2344 L 431.182 94.7849 L 431.748 104.354 
                   L 432.314 136.27 L 432.88 158.599 L 434.012 153.079 L 434.578 153.019 L 436.842 165.429 
                   L 437.408 163.123 L 437.974 163.689 L 438.54 163.593 L 439.106 160.715 L 439.672 159.849 
                   L 440.804 155.812 L 441.37 158.446 L 441.936 161.668 L 442.502 164.181 L 443.068 163.939 
                   L 443.634 161.319 L 444.766 170.688 L 445.332 170.798 L 445.898 171.082 L 446.464 172.819 
                   L 447.03 184.626 L 447.596 190.162 L 448.162 187.254 L 448.728 182.2 L 449.294 175.351 
                   L 449.86 175.271 L 450.426 176.888 L 451.558 143.765 L 452.124 141.697 L 452.69 138.213 
                   L 453.256 133.401 L 453.822 130.324 L 454.954 136.262 L 455.52 133.712 L 456.086 133.163 
                   L 456.652 135.156 L 457.218 135.103 L 458.35 131.001 L 458.916 131.239 L 459.482 131.099 
                   L 460.614 119.662 L 461.18 121.766 L 461.746 125.922 L 462.312 127.647 L 462.878 127.585 
                   L 463.444 127.69 L 464.01 130.047 L 464.576 129.638 L 465.142 126.874 L 465.708 126.817 
                   L 466.274 125.537 L 467.406 118.047 L 467.972 117.77 L 468.538 120.353 L 469.104 120.871 
                   L 470.236 116.496 L 470.802 117.648 L 471.368 116.608 L 471.934 112.786 L 473.066 122.678 
                   L 473.632 123.012 L 474.764 127.283 L 475.33 127.479 L 475.896 125.976 L 477.028 93.5653 
                   L 477.594 92.0249 L 478.726 92.4289 L 479.858 94.8196 L 480.424 94.8296 L 480.99 97.0268 
                   L 482.122 119.807 L 482.688 118.838 L 483.254 115.598 L 483.82 113.066 L 484.952 119.742 
                   L 485.518 110.083 L 486.084 110.161 L 486.65 120.416 L 487.216 120.358 L 487.782 120.068 
                   L 488.348 120.2 L 488.914 118.662 L 489.48 118.873 L 490.046 121.316 L 490.612 126.346 
                   L 491.178 134.163 L 491.744 140.3 L 492.31 140.514 L 492.876 137.617 L 493.442 135.448 
                   L 494.574 123.833 L 495.706 129.814 L 496.272 132.206 L 496.838 136.889 L 497.404 139.627 
                   L 497.97 139.226 L 498.536 134.909 L 499.102 131.684 L 499.668 132.08 L 500.234 134.276 
                   L 500.8 133.715 L 501.366 131.621 L 503.064 134.93 L 503.63 137.656 L 504.196 139.307 
                   L 505.328 143.967 L 505.894 142.422 L 506.46 141.375 L 507.026 141.954 L 507.592 141.904 
                   L 508.158 141.027 L 508.724 138.427 L 509.856 116.767 L 510.422 119.837 L 510.988 119.38 
                   L 511.554 115.442 L 512.12 113.523 L 512.686 112.017 L 513.252 112.095 L 514.384 115.795 
                   L 514.95 115.087 L 515.516 114.548 L 516.648 112.621 L 517.214 109.83 L 517.78 104.996 
                   L 518.346 102.958 L 518.912 102.637 L 520.044 111.379 L 520.61 113.915 L 521.742 134.558 
                   L 522.308 137.83 L 522.874 138.569 L 523.44 139.035 L 524.006 138.968 L 525.138 150.764 
                   L 525.704 151.552 L 526.27 154.678 L 526.836 155.073 L 527.402 150.578 L 527.968 149.922 
                   L 528.534 153.769 L 529.1 154.007 L 529.666 149.261 L 530.232 147.908 L 530.798 151.79 
                   L 531.364 149.537 L 531.93 145.017 L 532.496 145.202 L 533.062 144.587 L 533.628 129.319 
                   L 534.194 116.78 L 534.76 117.031 L 535.326 114.776 L 535.892 111.01 L 536.458 107.925 
                   L 537.024 108.381 L 538.156 134.622 L 538.722 136.6 L 539.288 136.161 L 539.854 134.069 
                   L 540.42 134.089 L 541.552 130.324 L 542.118 129.762 L 542.684 128.94 L 543.25 126.595 
                   L 543.816 126.713 L 544.382 132.515 L 544.948 133.695 L 545.514 133.375 L 546.08 133.601 
                   L 547.212 129.906 L 547.778 127.697 L 548.344 127.457 L 550.042 133.636 L 550.608 134.272 
                   L 551.174 132.701 L 551.74 133.853 L 552.306 133.853 L 552.872 132.655 L 553.438 134.41 
                   L 554.57 134.796 L 555.702 142.562 L 556.268 141.529 L 556.834 140.829 L 557.4 142.885 
                   L 557.966 143.002 L 558.532 143.569 L 559.664 140.101 L 560.23 140.32 L 560.796 138.183 
                   L 561.928 146.827 L 563.06 142.78 L 563.626 140.981 L 564.192 141.739 L 564.758 146.601 
                   L 565.324 149.115 L 565.89 149.613 L 566.456 151.717 L 567.022 151.35 L 567.588 151.523 
                   L 568.72 157.756 L 569.286 158.252 L 569.852 156.218 L 570.418 155.987 L 570.984 158.991 
                   L 571.55 163.397 L 572.116 166.819 L 573.248 181.795 L 574.38 171.869 L 574.946 174.311 
                   L 575.512 173.868 L 576.644 188.715 L 577.21 188.5 L 578.908 200.54 L 579.474 202.174 
                   L 580.04 204.46 L 580.606 207.453 L 581.172 208.005 L 581.738 209.458 L 582.304 209.496 
                   L 582.87 204.152 L 583.436 200.406 L 584.002 201.078 L 584.568 203.56 L 585.134 202.154 
                   L 585.7 195.897 L 586.266 193.742 L 586.832 196.404 L 587.964 188.174 L 588.53 188.007 
                   L 589.096 190.607 L 589.662 195.075 L 590.228 194.781 L 591.36 187.931 L 591.926 187.941 
                   L 592.492 190.871 L 593.058 188.466 L 593.624 185.145 L 594.19 192.679 L 594.756 201.677 
                   L 595.322 205.406 L 595.888 205.524 L 596.454 205.952 L 597.02 206.675 L 597.586 206.541 
                   L 598.718 192.79 L 599.284 188.814 L 599.85 182.002 L 600.416 184.101 L 600.982 187.091 
                   L 601.548 183.96 L 602.114 179.913 L 602.68 179.033 L 603.246 167.238 L 603.812 142.632 
                   L 604.378 133.007 L 604.944 136.367 L 606.076 140.219 L 606.642 139.692 L 607.208 143.531 
                   L 607.774 150.604 L 608.34 153.476 L 609.472 157.567 L 610.038 166.49 L 610.604 186.788 
                   L 611.17 197.443 L 611.736 188.718 L 612.302 184.077 L 612.868 188.942 L 613.434 189.833 
                   L 614 187.391 "
            stroke="rgb(180,38,123)" fill="none" stroke-width="1.2"/>
        </g>
      </g>
    </g>
  </g>
  <!-- Foreground -->
  <g id="Foreground">
    <!-- Y Axis -->
    <g id="Y_Axis">
      <g transform="translate(22.5312,148.5) rotate(-90) translate(-22.5312,-148.5)" font-family="Helvetica" font-size="20" fill="black">
        <text x="-28.0547" y="148.5">free energy</text>
      </g>
    </g>
    <!-- X Axis -->
    <g id="X_Axis">
      <g font-family="Helvetica" font-size="20" fill="black">
        <text x="273.739" y="318">configuration</text>
      </g>
    </g>
    <path d="M 48 16 L 48 281 L 614 281 "
      stroke="black" stroke-linecap="square" fill="none" stroke-width="2"/>
  </g>
</g>
</svg>
