<?xml version="1.0" encoding="UTF-8"?>
<!DOCTYPE svg PUBLIC "-//W3C//DTD SVG 1.1//EN" "http://www.w3.org/Graphics/SVG/1.1/DTD/svg11.dtd">
<svg version="1.1" xmlns="http://www.w3.org/2000/svg" xmlns:xlink="http://www.w3.org/1999/xlink" x="0" y="0" width="930.723" height="427.972" viewBox="0, 0, 930.723, 427.972">
  <defs>
    <linearGradient id="Gradient_1" gradientUnits="userSpaceOnUse" x1="380.866" y1="363.29" x2="380.866" y2="403.29">
      <stop offset="0" stop-color="#FF9691"/>
      <stop offset="0.125" stop-color="#F9908B"/>
      <stop offset="0.25" stop-color="#F38984"/>
      <stop offset="0.375" stop-color="#EE827D"/>
      <stop offset="0.5" stop-color="#E97C77"/>
      <stop offset="0.625" stop-color="#E47771"/>
      <stop offset="0.75" stop-color="#DF716C"/>
      <stop offset="0.875" stop-color="#DA6B66"/>
      <stop offset="1" stop-color="#D56660"/>
    </linearGradient>
    <clipPath id="Clip_1">
      <path d="M380.865,363.29 L400.865,383.29 L380.865,403.29 L380.865,393.29 L360.865,393.29 L360.865,373.29 L380.865,373.29 L380.865,363.29 z"/>
    </clipPath>
    <linearGradient id="Gradient_2" gradientUnits="userSpaceOnUse" x1="432.701" y1="295.388" x2="402.866" y2="322.031">
      <stop offset="0" stop-color="#FF9691"/>
      <stop offset="0.125" stop-color="#F9908B"/>
      <stop offset="0.25" stop-color="#F38984"/>
      <stop offset="0.375" stop-color="#EE827D"/>
      <stop offset="0.5" stop-color="#E97C77"/>
      <stop offset="0.625" stop-color="#E47771"/>
      <stop offset="0.75" stop-color="#DF716C"/>
      <stop offset="0.875" stop-color="#DA6B66"/>
      <stop offset="1" stop-color="#D56660"/>
    </linearGradient>
    <clipPath id="Clip_2">
      <path d="M412.982,288.319 L424.182,300.86 L431.64,294.2 L430.044,322.439 L401.805,320.843 L409.264,314.182 L398.064,301.641 L412.982,288.319 z"/>
    </clipPath>
    <linearGradient id="Gradient_3" gradientUnits="userSpaceOnUse" x1="395.857" y1="446.492" x2="421.092" y2="477.528">
      <stop offset="0" stop-color="#FF9691"/>
      <stop offset="0.125" stop-color="#F9908B"/>
      <stop offset="0.25" stop-color="#F38984"/>
      <stop offset="0.375" stop-color="#EE827D"/>
      <stop offset="0.5" stop-color="#E97C77"/>
      <stop offset="0.625" stop-color="#E47771"/>
      <stop offset="0.75" stop-color="#DF716C"/>
      <stop offset="0.875" stop-color="#DA6B66"/>
      <stop offset="1" stop-color="#D56660"/>
    </linearGradient>
    <clipPath id="Clip_3">
      <path d="M395.192,447.033 L423.327,449.933 L420.427,478.068 L414.118,470.31 L399.931,481.845 L387.314,466.328 L401.501,454.792 L395.192,447.033 z"/>
    </clipPath>
    <linearGradient id="Gradient_4" gradientUnits="userSpaceOnUse" x1="713.166" y1="298.125" x2="680.63" y2="274.858">
      <stop offset="0" stop-color="#FF9691"/>
      <stop offset="0.125" stop-color="#F9908B"/>
      <stop offset="0.25" stop-color="#F38984"/>
      <stop offset="0.375" stop-color="#EE827D"/>
      <stop offset="0.5" stop-color="#E97C77"/>
      <stop offset="0.625" stop-color="#E47771"/>
      <stop offset="0.75" stop-color="#DF716C"/>
      <stop offset="0.875" stop-color="#DA6B66"/>
      <stop offset="1" stop-color="#D56660"/>
    </linearGradient>
    <clipPath id="Clip_4">
      <path d="M700.026,264.924 L716.295,276.558 L705.403,291.789 L713.537,297.606 L685.635,302.241 L681,274.339 L689.134,280.156 L700.026,264.924 z"/>
    </clipPath>
    <linearGradient id="Gradient_5" gradientUnits="userSpaceOnUse" x1="744.695" y1="355.897" x2="731.723" y2="318.058">
      <stop offset="0" stop-color="#FF9691"/>
      <stop offset="0.125" stop-color="#F9908B"/>
      <stop offset="0.25" stop-color="#F38984"/>
      <stop offset="0.375" stop-color="#EE827D"/>
      <stop offset="0.5" stop-color="#E97C77"/>
      <stop offset="0.625" stop-color="#E47771"/>
      <stop offset="0.75" stop-color="#DF716C"/>
      <stop offset="0.875" stop-color="#DA6B66"/>
      <stop offset="1" stop-color="#D56660"/>
    </linearGradient>
    <clipPath id="Clip_5">
      <path d="M729.126,318.949 L732.369,328.408 L756.481,320.141 L762.967,339.061 L738.855,347.327 L742.098,356.787 L716.693,344.354 L729.126,318.949 z"/>
    </clipPath>
    <linearGradient id="Gradient_6" gradientUnits="userSpaceOnUse" x1="732.566" y1="427.152" x2="745.256" y2="389.218">
      <stop offset="0" stop-color="#FF9691"/>
      <stop offset="0.125" stop-color="#F9908B"/>
      <stop offset="0.25" stop-color="#F38984"/>
      <stop offset="0.375" stop-color="#EE827D"/>
      <stop offset="0.5" stop-color="#E97C77"/>
      <stop offset="0.625" stop-color="#E47771"/>
      <stop offset="0.75" stop-color="#DF716C"/>
      <stop offset="0.875" stop-color="#DA6B66"/>
      <stop offset="1" stop-color="#D56660"/>
    </linearGradient>
    <clipPath id="Clip_6">
      <path d="M742.215,388.201 L739.042,397.684 L764.091,406.064 L757.747,425.031 L732.698,416.651 L729.525,426.134 L716.903,400.823 L742.215,388.201 z"/>
    </clipPath>
    <clipPath id="Clip_7">
      <path d="M319.2,620 L352.2,620 L352.2,592 L319.2,592 z"/>
    </clipPath>
    <clipPath id="Clip_8">
      <path d="M197.135,432.424 L241.135,432.424 L241.135,406.424 L197.135,406.424 z"/>
    </clipPath>
  </defs>
  <g id="Layer_1" transform="translate(98.723, -192.028)">
    <g id="Layer_1">
      <g>
        <path d="M555.968,332.226 C539.785,362.971 543.17,401.325 566.124,428.887 C582.306,398.142 578.921,359.788 555.968,332.226 z M555.968,332.226" fill="#BFBFFF"/>
        <path d="M529.673,347.066 C552.323,369.717 552.323,406.44 529.673,429.09 C507.022,451.741 470.299,451.741 447.649,429.09 C424.998,406.44 424.998,369.717 447.649,347.066 C470.299,324.416 507.022,324.416 529.673,347.066" fill="#FFFFBF"/>
        <path d="M530.173,347.566 C552.823,370.217 552.823,406.94 530.173,429.59 C507.522,452.241 470.799,452.241 448.149,429.59 C425.498,406.94 425.498,370.217 448.149,347.566 C470.799,324.916 507.522,324.916 530.173,347.566" fill-opacity="0" stroke="#000000" stroke-width="1" stroke-linecap="round" stroke-linejoin="round"/>
        <path d="M551.032,326.706 C585.203,360.877 585.203,416.279 551.032,450.45 C516.862,484.621 461.46,484.621 427.289,450.45 C393.118,416.279 393.118,360.877 427.289,326.706 C461.46,292.535 516.862,292.535 551.032,326.706" fill-opacity="0" stroke="#000000" stroke-width="1" stroke-dasharray="4,4" stroke-linecap="round" stroke-linejoin="round"/>
        <path d="M674.443,331.887 C697.093,354.538 697.093,391.261 674.443,413.911 C651.792,436.562 615.069,436.562 592.418,413.911 C569.768,391.261 569.768,354.538 592.418,331.887 C615.069,309.237 651.792,309.237 674.443,331.887" fill="#FFFFBF"/>
        <path d="M674.943,332.387 C697.593,355.038 697.593,391.761 674.943,414.411 C652.292,437.062 615.569,437.062 592.918,414.411 C570.268,391.761 570.268,355.038 592.918,332.387 C615.569,309.737 652.292,309.737 674.943,332.387" fill-opacity="0" stroke="#000000" stroke-width="1" stroke-linecap="round" stroke-linejoin="round"/>
        <path d="M695.802,311.528 C729.973,345.698 729.973,401.1 695.802,435.271 C661.631,469.442 606.23,469.442 572.059,435.271 C537.888,401.1 537.888,345.698 572.059,311.528 C606.23,277.357 661.631,277.357 695.802,311.528" fill-opacity="0" stroke="#000000" stroke-width="1" stroke-dasharray="4,4" stroke-linecap="round" stroke-linejoin="round"/>
        <path d="M88.92,239.516 C111.57,262.166 111.57,298.89 88.92,321.54 C66.269,344.191 29.546,344.191 6.895,321.54 C-15.755,298.89 -15.755,262.166 6.895,239.516 C29.546,216.866 66.269,216.866 88.92,239.516" fill="#FFFFBF"/>
        <path d="M89.42,240.016 C112.07,262.666 112.07,299.39 89.42,322.04 C66.769,344.691 30.046,344.691 7.395,322.04 C-15.255,299.39 -15.255,262.666 7.395,240.016 C30.046,217.366 66.769,217.366 89.42,240.016" fill-opacity="0" stroke="#000000" stroke-width="1" stroke-linecap="round" stroke-linejoin="round"/>
        <path d="M110.279,219.156 C144.45,253.327 144.45,308.729 110.279,342.9 C76.108,377.071 20.707,377.071 -13.464,342.9 C-47.635,308.729 -47.635,253.327 -13.464,219.156 C20.707,184.985 76.108,184.985 110.279,219.156" fill-opacity="0" stroke="#000000" stroke-width="1" stroke-dasharray="4,4" stroke-linecap="round" stroke-linejoin="round"/>
        <path d="M260.147,404.512 C282.797,427.162 282.797,463.885 260.147,486.536 C237.496,509.186 200.773,509.186 178.123,486.536 C155.472,463.885 155.472,427.162 178.123,404.512 C200.773,381.861 237.496,381.861 260.147,404.512" fill="#FFFFBF"/>
        <path d="M260.647,405.012 C283.297,427.662 283.297,464.385 260.647,487.036 C237.996,509.686 201.273,509.686 178.623,487.036 C155.972,464.385 155.972,427.662 178.623,405.012 C201.273,382.361 237.996,382.361 260.647,405.012" fill-opacity="0" stroke="#000000" stroke-width="1" stroke-linecap="round" stroke-linejoin="round"/>
        <path d="M281.506,384.152 C315.677,418.323 315.677,473.725 281.506,507.895 C247.336,542.066 191.934,542.066 157.763,507.895 C123.592,473.725 123.592,418.323 157.763,384.152 C191.934,349.981 247.336,349.981 281.506,384.152" fill-opacity="0" stroke="#000000" stroke-width="1" stroke-dasharray="4,4" stroke-linecap="round" stroke-linejoin="round"/>
      </g>
      <g clip-path="url(#Clip_1)">
        <path d="M380.866,363.29 L400.866,383.29 L380.866,403.29 L380.866,393.29 L360.866,393.29 L360.866,373.29 L380.866,373.29 L380.866,363.29 z" fill="url(#Gradient_1)"/>
      </g>
      <path d="M361.365,393.79 L361.365,373.79 L381.365,373.79 L381.365,363.79 L401.365,383.79 L381.365,403.79 L381.365,393.79 z M361.365,393.79" fill-opacity="0" stroke="#C01C00" stroke-width="1" stroke-linecap="round" stroke-linejoin="round"/>
      <g clip-path="url(#Clip_2)">
        <path d="M412.982,288.319 L424.182,300.86 L431.64,294.2 L430.044,322.439 L401.805,320.843 L409.264,314.182 L398.064,301.641 L412.982,288.319 z" fill="url(#Gradient_2)"/>
      </g>
      <path d="M398.564,302.141 L413.482,288.819 L424.682,301.36 L432.14,294.7 L430.544,322.939 L402.305,321.343 L409.764,314.682 z M398.564,302.141" fill-opacity="0" stroke="#C01C00" stroke-width="1" stroke-linecap="round" stroke-linejoin="round"/>
      <g clip-path="url(#Clip_3)">
        <path d="M395.192,447.033 L423.327,449.933 L420.427,478.069 L414.118,470.31 L399.931,481.846 L387.314,466.328 L401.501,454.792 L395.192,447.033 z" fill="url(#Gradient_3)"/>
      </g>
      <path d="M400.431,482.346 L387.814,466.828 L402.001,455.292 L395.692,447.533 L423.827,450.433 L420.927,478.569 L414.618,470.81 z M400.431,482.346" fill-opacity="0" stroke="#C01C00" stroke-width="1" stroke-linecap="round" stroke-linejoin="round"/>
      <g clip-path="url(#Clip_4)">
        <path d="M700.026,264.924 L716.295,276.558 L705.403,291.789 L713.537,297.606 L685.635,302.241 L681,274.339 L689.134,280.156 L700.026,264.924 z" fill="url(#Gradient_4)"/>
      </g>
      <path d="M700.526,265.424 L716.795,277.058 L705.903,292.289 L714.037,298.106 L686.135,302.741 L681.5,274.839 L689.634,280.656 z M700.526,265.424" fill-opacity="0" stroke="#C01C00" stroke-width="1" stroke-linecap="round" stroke-linejoin="round"/>
      <g clip-path="url(#Clip_5)">
        <path d="M729.126,318.949 L732.369,328.408 L756.481,320.141 L762.968,339.061 L738.855,347.327 L742.098,356.787 L716.693,344.354 L729.126,318.949 z" fill="url(#Gradient_5)"/>
      </g>
      <path d="M756.982,320.641 L763.468,339.561 L739.355,347.827 L742.598,357.287 L717.193,344.854 L729.626,319.449 L732.869,328.908 z M756.982,320.641" fill-opacity="0" stroke="#C01C00" stroke-width="1" stroke-linecap="round" stroke-linejoin="round"/>
      <g clip-path="url(#Clip_6)">
        <path d="M742.215,388.201 L739.042,397.684 L764.091,406.064 L757.747,425.031 L732.698,416.651 L729.525,426.134 L716.903,400.823 L742.215,388.201 z" fill="url(#Gradient_6)"/>
      </g>
      <g>
        <path d="M764.591,406.564 L758.247,425.531 L733.198,417.151 L730.025,426.634 L717.403,401.323 L742.715,388.701 L739.542,398.184 z M764.591,406.564" fill-opacity="0" stroke="#C01C00" stroke-width="1" stroke-linecap="round" stroke-linejoin="round"/>
        <path d="M80.071,444.888 C91.422,456.239 91.422,474.642 80.071,485.993 C68.72,497.343 50.317,497.343 38.967,485.993 C27.616,474.642 27.616,456.239 38.967,444.888 C50.317,433.537 68.72,433.537 80.071,444.888" fill="#FFBFBF"/>
        <path d="M80.571,445.388 C91.922,456.739 91.922,475.142 80.571,486.493 C69.22,497.843 50.817,497.843 39.466,486.493 C28.116,475.142 28.116,456.739 39.466,445.388 C50.817,434.037 69.22,434.037 80.571,445.388" fill-opacity="0" stroke="#000000" stroke-width="1" stroke-linecap="round" stroke-linejoin="round"/>
        <path d="M57.281,480.693 C54.881,464.293 32.78,428.598 38.83,461.637 C44.879,494.677 60.635,439.662 60.635,439.662 C58.995,452.735 54.636,459.652 54.636,459.652 C62.561,453.941 64.94,442.391 71.266,458.003 C77.591,473.616 45.715,475.874 51.498,485.512 C57.281,495.151 98.805,447.807 84.43,468.518 C70.054,489.228 60.019,465.94 60.019,465.94" fill-opacity="0" stroke="#000000" stroke-width="2" stroke-linecap="round" stroke-linejoin="round"/>
        <path d="M-22.959,376.515 C-38.464,380.67 -54.401,371.468 -58.556,355.963 C-62.711,340.458 -53.509,324.52 -38.004,320.365 C-22.498,316.211 -6.561,325.412 -2.406,340.918 C1.748,356.423 -7.453,372.361 -22.959,376.515" fill="#FFBFBF"/>
        <path d="M-22.459,377.015 C-37.964,381.17 -53.902,371.968 -58.056,356.463 C-62.211,340.958 -53.009,325.02 -37.504,320.865 C-21.999,316.711 -6.061,325.912 -1.906,341.418 C2.248,356.923 -6.953,372.861 -22.459,377.015" fill-opacity="0" stroke="#000000" stroke-width="1" stroke-linecap="round" stroke-linejoin="round"/>
        <path d="M-41.39,339.182 C-25.987,345.303 15.976,344.011 -15.662,332.73 C-47.3,321.449 -7.534,362.602 -7.534,362.602 C-18.035,354.645 -21.846,347.412 -21.846,347.412 C-20.862,357.13 -12.049,364.965 -28.733,362.637 C-45.417,360.309 -31.434,331.575 -42.672,331.764 C-53.911,331.953 -33.672,391.585 -44.421,368.781 C-55.169,345.976 -29.981,348.94 -29.981,348.94" fill-opacity="0" stroke="#000000" stroke-width="2" stroke-linecap="round" stroke-linejoin="round"/>
        <path d="M-48.106,221.888 C-36.755,233.239 -36.755,251.642 -48.106,262.993 C-59.456,274.343 -77.859,274.343 -89.21,262.993 C-100.561,251.642 -100.561,233.239 -89.21,221.888 C-77.859,210.537 -59.456,210.537 -48.106,221.888" fill="#FFBFBF"/>
        <path d="M-47.606,222.388 C-36.255,233.739 -36.255,252.142 -47.606,263.493 C-58.956,274.843 -77.359,274.843 -88.71,263.493 C-100.061,252.142 -100.061,233.739 -88.71,222.388 C-77.359,211.037 -58.956,211.037 -47.606,222.388" fill-opacity="0" stroke="#000000" stroke-width="1" stroke-linecap="round" stroke-linejoin="round"/>
        <path d="M-70.895,257.693 C-73.295,241.293 -95.397,205.598 -89.347,238.637 C-83.298,271.677 -67.541,216.662 -67.541,216.662 C-69.182,229.735 -73.54,236.652 -73.54,236.652 C-65.616,230.941 -83.152,240.357 -76.827,255.969 C-70.501,271.581 -82.462,252.874 -76.679,262.512 C-70.895,272.151 -29.372,224.807 -43.747,245.518 C-58.122,266.228 -68.158,242.94 -68.158,242.94" fill-opacity="0" stroke="#000000" stroke-width="2" stroke-linecap="round" stroke-linejoin="round"/>
        <path d="M185.025,211.888 C196.376,223.239 196.376,241.642 185.025,252.993 C173.674,264.343 155.271,264.343 143.92,252.993 C132.57,241.642 132.57,223.239 143.92,211.888 C155.271,200.537 173.674,200.537 185.025,211.888" fill="#FFBFBF"/>
        <path d="M185.525,212.388 C196.876,223.739 196.876,242.142 185.525,253.493 C174.174,264.843 155.771,264.843 144.421,253.493 C133.07,242.142 133.07,223.739 144.421,212.388 C155.771,201.037 174.174,201.037 185.525,212.388" fill-opacity="0" stroke="#000000" stroke-width="1" stroke-linecap="round" stroke-linejoin="round"/>
        <path d="M162.235,247.693 C159.835,231.293 156.364,211.537 162.414,244.576 C168.463,277.616 165.59,206.662 165.59,206.662 C163.949,219.735 159.59,226.652 159.59,226.652 C167.515,220.941 163.346,222.509 163.346,222.509 C163.346,222.509 173.156,220.108 173.156,220.108 C173.156,220.108 141.531,215.673 147.857,231.285 C154.183,246.898 150.669,242.874 156.452,252.512 C162.235,262.151 203.759,214.807 189.384,235.518 C175.008,256.228 164.973,232.94 164.973,232.94" fill-opacity="0" stroke="#000000" stroke-width="2" stroke-linecap="round" stroke-linejoin="round"/>
        <path d="M316.548,314.963 C312.393,330.468 296.456,339.67 280.95,335.515 C265.445,331.361 256.243,315.423 260.398,299.918 C264.552,284.412 280.49,275.211 295.995,279.365 C311.501,283.52 320.702,299.458 316.548,314.963" fill="#FFBFBF"/>
        <path d="M317.048,315.463 C312.893,330.968 296.955,340.17 281.45,336.015 C265.945,331.861 256.743,315.923 260.898,300.418 C265.052,284.912 280.99,275.711 296.495,279.865 C312.001,284.02 321.202,299.958 317.048,315.463" fill-opacity="0" stroke="#000000" stroke-width="1" stroke-linecap="round" stroke-linejoin="round"/>
        <path d="M274.82,312.943 C287.823,302.664 307.685,265.677 282.097,287.436 C256.509,309.194 279.785,294.629 279.785,294.629 C279.785,294.629 312.031,295.332 312.031,295.332 C299.89,300.448 291.72,300.132 291.72,300.132 C300.628,304.139 311.82,300.425 301.462,313.709 C291.104,326.994 273.211,300.517 267.755,310.344 C262.3,320.172 324.062,332.461 298.939,330.367 C273.815,328.272 288.973,307.94 288.973,307.94" fill-opacity="0" stroke="#000000" stroke-width="2" stroke-linecap="round" stroke-linejoin="round"/>
        <path d="M475.025,221.888 C486.376,233.239 486.376,251.642 475.025,262.993 C463.674,274.343 445.271,274.343 433.921,262.993 C422.57,251.642 422.57,233.239 433.921,221.888 C445.271,210.537 463.674,210.537 475.025,221.888" fill="#FFBFBF"/>
        <path d="M475.525,222.388 C486.876,233.739 486.876,252.142 475.525,263.493 C464.174,274.843 445.771,274.843 434.421,263.493 C423.07,252.142 423.07,233.739 434.421,222.388 C445.771,211.037 464.174,211.037 475.525,222.388" fill-opacity="0" stroke="#000000" stroke-width="1" stroke-linecap="round" stroke-linejoin="round"/>
        <path d="M474.439,236.982 C472.039,220.582 427.734,205.598 433.784,238.637 C439.833,271.677 455.589,216.662 455.589,216.662 C453.949,229.735 449.59,236.652 449.59,236.652 C457.515,230.941 459.894,219.391 466.22,235.003 C472.545,250.616 440.669,252.874 446.452,262.512 C452.235,272.151 493.759,224.807 479.384,245.518 C465.008,266.228 459.882,259.608 459.882,259.608" fill-opacity="0" stroke="#000000" stroke-width="2" stroke-linecap="round" stroke-linejoin="round"/>
        <path d="M643.025,221.888 C654.376,233.239 654.376,251.642 643.025,262.993 C631.674,274.343 613.271,274.343 601.921,262.993 C590.57,251.642 590.57,233.239 601.921,221.888 C613.271,210.537 631.674,210.537 643.025,221.888" fill="#FFBFBF"/>
        <path d="M643.525,222.388 C654.876,233.739 654.876,252.142 643.525,263.493 C632.174,274.843 613.771,274.843 602.421,263.493 C591.07,252.142 591.07,233.739 602.421,222.388 C613.771,211.037 632.174,211.037 643.525,222.388" fill-opacity="0" stroke="#000000" stroke-width="1" stroke-linecap="round" stroke-linejoin="round"/>
        <path d="M620.235,257.693 C617.835,241.293 595.734,205.598 601.784,238.637 C607.833,271.677 623.589,216.662 623.589,216.662 C621.949,229.735 643.11,238.564 643.11,238.564 C651.034,232.853 622.587,234.724 622.587,234.724 C622.587,234.724 627.894,219.391 634.22,235.003 C640.545,250.616 608.669,252.874 614.452,262.512 C620.235,272.151 661.759,224.807 647.384,245.518 C633.008,266.228 634.249,259.608 634.249,259.608" fill-opacity="0" stroke="#000000" stroke-width="2" stroke-linecap="round" stroke-linejoin="round"/>
        <path d="M802.025,291.993 C790.674,303.343 772.271,303.343 760.921,291.993 C749.57,280.642 749.57,262.239 760.921,250.888 C772.271,239.537 790.674,239.537 802.025,250.888 C813.376,262.239 813.376,280.642 802.025,291.993" fill="#FFBFBF"/>
        <path d="M802.525,292.493 C791.174,303.843 772.771,303.843 761.421,292.493 C750.07,281.142 750.07,262.739 761.421,251.388 C772.771,240.037 791.174,240.037 802.525,251.388 C813.876,262.739 813.876,281.142 802.525,292.493" fill-opacity="0" stroke="#000000" stroke-width="1" stroke-linecap="round" stroke-linejoin="round"/>
        <path d="M767.213,269.194 C783.613,266.794 819.308,244.692 786.268,250.742 C753.229,256.792 808.244,272.548 808.244,272.548 C795.171,270.907 788.254,266.549 788.254,266.549 C793.965,274.473 805.515,276.852 789.902,283.178 C774.29,289.504 772.032,257.627 762.394,263.41 C752.755,269.194 800.099,310.717 779.388,296.342 C758.678,281.967 781.973,271.94 781.973,271.94" fill-opacity="0" stroke="#000000" stroke-width="2" stroke-linecap="round" stroke-linejoin="round"/>
        <path d="M763.487,482.806 C774.838,494.157 774.838,512.56 763.487,523.911 C752.136,535.261 733.733,535.261 722.382,523.911 C711.032,512.56 711.032,494.157 722.382,482.806 C733.733,471.455 752.136,471.455 763.487,482.806" fill="#FFBFBF"/>
        <path d="M763.987,483.306 C775.338,494.657 775.338,513.06 763.987,524.411 C752.636,535.761 734.233,535.761 722.882,524.411 C711.532,513.06 711.532,494.657 722.882,483.306 C734.233,471.955 752.636,471.955 763.987,483.306" fill-opacity="0" stroke="#000000" stroke-width="1" stroke-linecap="round" stroke-linejoin="round"/>
        <path d="M740.697,518.611 C738.297,502.211 716.196,466.516 722.245,499.555 C728.295,532.595 744.051,477.58 744.051,477.58 C742.41,490.653 738.052,497.57 738.052,497.57 C745.977,491.859 729.131,513.792 734.914,523.43 C740.697,533.069 782.221,485.725 767.845,506.436 C753.47,527.146 743.435,503.858 743.435,503.858" fill-opacity="0" stroke="#000000" stroke-width="2" stroke-linecap="round" stroke-linejoin="round"/>
        <path d="M822.487,382.806 C833.838,394.157 833.838,412.56 822.487,423.911 C811.136,435.261 792.733,435.261 781.382,423.911 C770.032,412.56 770.032,394.157 781.382,382.806 C792.733,371.455 811.136,371.455 822.487,382.806" fill="#FFBFBF"/>
        <path d="M822.987,383.306 C834.338,394.657 834.338,413.06 822.987,424.411 C811.636,435.761 793.233,435.761 781.882,424.411 C770.532,413.06 770.532,394.657 781.882,383.306 C793.233,371.955 811.636,371.955 822.987,383.306" fill-opacity="0" stroke="#000000" stroke-width="1" stroke-linecap="round" stroke-linejoin="round"/>
        <path d="M799.697,418.611 C797.297,402.211 775.196,366.516 781.245,399.555 C787.295,432.595 803.051,377.58 803.051,377.58 C801.41,390.653 787.414,382.235 787.414,382.235 C787.414,382.235 797.052,397.57 797.052,397.57 C804.977,391.859 803.548,391.758 803.548,391.758 C803.548,391.758 807.356,380.309 813.682,395.922 C820.007,411.534 788.131,413.792 793.914,423.43 C799.697,433.069 841.221,385.725 826.845,406.436 C812.47,427.146 819.692,387.931 819.692,387.931" fill-opacity="0" stroke="#000000" stroke-width="2" stroke-linecap="round" stroke-linejoin="round"/>
        <path d="M625.763,488.826 C633.79,474.924 651.566,470.161 665.467,478.187 C679.369,486.213 684.132,503.989 676.106,517.891 C668.08,531.793 650.304,536.556 636.402,528.53 C622.5,520.503 617.737,502.727 625.763,488.826" fill="#FFBFBF"/>
        <path d="M626.263,489.326 C634.29,475.424 652.066,470.661 665.967,478.687 C679.869,486.713 684.632,504.489 676.606,518.391 C668.58,532.293 650.804,537.056 636.902,529.03 C623,521.003 618.237,503.227 626.263,489.326" fill-opacity="0" stroke="#000000" stroke-width="1" stroke-linecap="round" stroke-linejoin="round"/>
        <path d="M666.398,502.691 C651.178,509.254 622.42,539.84 652.768,525.446 C683.116,511.051 625.897,510.07 625.897,510.07 C638.949,508.272 646.759,510.692 646.759,510.692 C639.191,504.515 627.419,505.206 640.862,495.055 C654.306,484.904 664.737,515.11 672.55,507.03 C680.363,498.949 623.886,471.094 647.611,479.619 C671.337,488.144 651.435,503.858 651.435,503.858" fill-opacity="0" stroke="#000000" stroke-width="2" stroke-linecap="round" stroke-linejoin="round"/>
        <path d="M572.487,503.806 C583.838,515.157 583.838,533.56 572.487,544.911 C561.136,556.261 542.733,556.261 531.382,544.911 C520.032,533.56 520.032,515.157 531.382,503.806 C542.733,492.455 561.136,492.455 572.487,503.806" fill="#FFBFBF"/>
        <path d="M572.987,504.306 C584.338,515.657 584.338,534.06 572.987,545.411 C561.636,556.761 543.233,556.761 531.882,545.411 C520.532,534.06 520.532,515.657 531.882,504.306 C543.233,492.955 561.636,492.955 572.987,504.306" fill-opacity="0" stroke="#000000" stroke-width="1" stroke-linecap="round" stroke-linejoin="round"/>
        <path d="M549.697,539.611 C547.297,523.211 525.196,487.516 531.245,520.555 C537.295,553.595 553.051,498.58 553.051,498.58 C551.41,511.653 547.052,518.57 547.052,518.57 C554.977,512.859 557.356,501.309 563.682,516.922 C570.007,532.534 538.131,534.792 543.914,544.43 C549.697,554.069 591.221,506.725 576.845,527.436 C562.47,548.146 552.435,524.858 552.435,524.858" fill-opacity="0" stroke="#000000" stroke-width="2" stroke-linecap="round" stroke-linejoin="round"/>
        <path d="M356.252,565.047 C344.902,576.398 326.498,576.398 315.148,565.047 C303.797,553.696 303.797,535.293 315.148,523.943 C326.498,512.592 344.902,512.592 356.252,523.943 C367.603,535.293 367.603,553.696 356.252,565.047" fill="#FFBFBF"/>
        <path d="M356.752,565.547 C345.402,576.898 326.998,576.898 315.648,565.547 C304.297,554.196 304.297,535.793 315.648,524.443 C326.998,513.092 345.402,513.092 356.752,524.443 C368.103,535.793 368.103,554.196 356.752,565.547" fill-opacity="0" stroke="#000000" stroke-width="1" stroke-linecap="round" stroke-linejoin="round"/>
        <path d="M321.44,542.248 C337.84,539.848 373.535,517.747 340.496,523.797 C307.456,529.846 362.471,545.603 362.471,545.603 C349.398,543.962 342.481,539.603 342.481,539.603 C348.192,547.528 359.742,549.907 344.13,556.233 C328.517,562.558 326.259,530.682 316.621,536.465 C306.982,542.248 354.326,583.772 333.615,569.397 C312.905,555.021 336.2,544.995 336.2,544.995" fill-opacity="0" stroke="#000000" stroke-width="2" stroke-linecap="round" stroke-linejoin="round"/>
        <path d="M74.945,542.282 C87.764,532.622 105.988,535.183 115.649,548.003 C125.31,560.823 122.748,579.047 109.928,588.707 C97.108,598.368 78.884,595.807 69.224,582.987 C59.563,570.167 62.125,551.943 74.945,542.282" fill="#FFBFBF"/>
        <path d="M75.445,542.782 C88.265,533.122 106.489,535.683 116.149,548.503 C125.81,561.323 123.248,579.547 110.428,589.207 C97.608,598.868 79.384,596.307 69.724,583.487 C60.063,570.667 62.625,552.443 75.445,542.782" fill-opacity="0" stroke="#000000" stroke-width="1" stroke-linecap="round" stroke-linejoin="round"/>
        <path d="M107.165,570.76 C90.59,570.854 52.167,587.772 85.727,586.38 C119.287,584.987 67,561.727 67,561.727 C79.717,565.172 85.96,570.45 85.96,570.45 C81.408,561.808 70.302,557.845 86.642,553.753 C102.983,549.662 100.783,581.543 111.132,577.157 C121.482,572.772 80.378,525.063 98.886,542.181 C117.395,559.299 92.936,565.995 92.936,565.995" fill-opacity="0" stroke="#000000" stroke-width="2" stroke-linecap="round" stroke-linejoin="round"/>
        <path d="M544.278,286.754 C555.629,298.105 555.629,316.508 544.278,327.859 C532.928,339.209 514.524,339.209 503.174,327.859 C491.823,316.508 491.823,298.105 503.174,286.754 C514.524,275.403 532.928,275.403 544.278,286.754" fill="#FFBFBF"/>
        <path d="M544.778,287.254 C556.129,298.605 556.129,317.008 544.778,328.359 C533.428,339.709 515.024,339.709 503.674,328.359 C492.323,317.008 492.323,298.605 503.674,287.254 C515.024,275.903 533.428,275.903 544.778,287.254" fill-opacity="0" stroke="#000000" stroke-width="1" stroke-linecap="round" stroke-linejoin="round"/>
        <path d="M521.488,322.559 C519.088,306.159 496.987,270.464 503.037,303.503 C509.086,336.543 524.843,281.528 524.843,281.528 C523.202,294.601 518.843,301.518 518.843,301.518 C526.768,295.807 529.147,284.257 535.473,299.87 C541.799,315.482 509.922,317.74 515.705,327.378 C521.488,337.017 563.012,289.673 548.637,310.384 C534.262,331.094 524.226,307.806 524.226,307.806" fill-opacity="0" stroke="#000000" stroke-width="2" stroke-linecap="round" stroke-linejoin="round"/>
      </g>
      <g clip-path="url(#Clip_7)">
        <path d="M320.205,602.349 C320.671,600.233 321.604,597.866 323.72,596.934 C324.545,596.611 325.441,596.539 326.302,596.611 C328.06,596.754 329.817,597.508 330.893,598.978 C331.646,600.054 331.933,601.417 331.826,602.744 C331.359,606.617 327.558,609.343 325.083,611.459 L320.133,616.014 L319.524,616.588 C319.201,616.911 319.165,616.911 319.165,617.556 L319.165,618.812 L334.228,618.812 L334.228,616.803 L321.245,616.803 C322.393,615.691 327.163,611.495 327.809,610.993 C329.889,609.307 332.256,607.586 333.511,605.111 C334.946,602.242 334.193,598.655 331.754,596.575 C328.956,594.136 324.007,593.921 321.245,596.503 C320.313,597.436 319.595,598.619 319.129,599.946 C319.057,600.162 318.878,600.448 318.914,600.7 C318.95,600.915 319.165,601.094 319.273,601.237 C319.56,601.596 319.846,602.027 320.205,602.349 z" fill="#000000"/>
        <path d="M345.326,601.551 C341.918,602.699 339.336,605.676 338.224,609.047 C337.901,610.016 337.65,611.056 337.614,612.06 C337.543,614.176 337.973,616.364 339.479,617.942 C340.412,618.874 341.703,619.592 343.496,619.592 C345.828,619.627 347.621,617.87 348.769,615.969 C350.777,612.526 351.996,606.285 349.414,602.735 C348.159,600.798 344.25,598.216 344.25,595.777 C344.25,595.131 344.501,594.486 345.218,594.414 C345.433,594.414 345.684,594.45 345.899,594.522 C347.8,594.916 348.374,595.024 350.598,595.562 C351.351,595.741 352.283,594.88 352.032,594.091 C351.889,593.697 351.53,593.589 351.172,593.553 C350.705,593.446 348.769,593.051 348.446,593.015 C347.836,592.908 346.653,592.693 346.079,592.621 C345.003,592.585 343.819,592.979 343.138,593.84 C342.528,594.701 342.42,595.526 342.851,596.853 C343.425,598.539 344.429,600.045 345.326,601.551 z M346.15,603.093 C346.509,603.129 346.724,603.667 346.904,603.954 C347.442,604.923 347.908,605.927 348.195,607.003 C348.984,609.98 348.338,613.423 347.191,615.431 C346.473,616.686 345.361,617.834 343.819,617.798 C342.6,617.798 341.739,617.404 341.058,616.722 C339.551,615.216 339.695,612.705 340.161,610.374 C340.771,607.397 342.313,604.42 345.218,603.345 C345.505,603.237 345.863,603.093 346.15,603.093 z" fill="#000000"/>
      </g>
      <g>
        <path d="M316.061,587.741 L357.45,587.741" fill-opacity="0" stroke="#000000" stroke-width="1" stroke-linecap="round" stroke-linejoin="round"/>
        <path d="M364.95,587.241 L356.95,584.241 L356.95,590.241 z M364.95,587.241" fill="#000000"/>
        <path d="M365.45,587.741 L357.45,584.741 L357.45,590.741 z M365.45,587.741" fill-opacity="0" stroke="#000000" stroke-width="1"/>
        <path d="M307.561,587.241 L315.561,590.241 L315.561,584.241 z M307.561,587.241" fill="#000000"/>
        <path d="M308.061,587.741 L316.061,590.741 L316.061,584.741 z M308.061,587.741" fill-opacity="0" stroke="#000000" stroke-width="1"/>
        <path d="M175.364,445.524 L263.905,445.524" fill-opacity="0" stroke="#000000" stroke-width="1" stroke-linecap="round" stroke-linejoin="round"/>
        <path d="M271.405,445.024 L263.405,442.024 L263.405,448.024 z M271.405,445.024" fill="#000000"/>
        <path d="M271.905,445.524 L263.905,442.524 L263.905,448.524 z M271.905,445.524" fill-opacity="0" stroke="#000000" stroke-width="1"/>
        <path d="M166.864,445.024 L174.864,448.024 L174.864,442.024 z M166.864,445.024" fill="#000000"/>
        <path d="M167.364,445.524 L175.364,448.524 L175.364,442.524 z M167.364,445.524" fill-opacity="0" stroke="#000000" stroke-width="1"/>
      </g>
      <g clip-path="url(#Clip_8)">
        <path d="M198.588,416.173 C199.054,414.057 199.987,411.69 202.103,410.758 C202.928,410.435 203.824,410.363 204.685,410.435 C206.442,410.578 208.2,411.332 209.276,412.802 C210.029,413.878 210.316,415.241 210.208,416.568 C209.742,420.441 205.94,423.167 203.466,425.283 L198.516,429.838 L197.906,430.412 C197.584,430.735 197.548,430.735 197.548,431.38 L197.548,432.636 L212.611,432.636 L212.611,430.627 L199.628,430.627 C200.776,429.515 205.546,425.319 206.191,424.817 C208.271,423.131 210.639,421.41 211.894,418.935 C213.328,416.066 212.575,412.479 210.136,410.399 C207.339,407.96 202.39,407.745 199.628,410.327 C198.695,411.26 197.978,412.443 197.512,413.77 C197.44,413.986 197.261,414.272 197.297,414.524 C197.333,414.739 197.548,414.918 197.655,415.061 C197.942,415.42 198.229,415.851 198.588,416.173 z" fill="#000000"/>
        <path d="M223.446,407.373 L218.174,432.264 C218.999,432.264 219.896,432.299 220.613,432.192 L220.721,431.941 L223.088,420.715 L228.109,420.715 C228.719,420.715 229.4,420.679 229.866,420.823 C230.333,421.647 230.691,422.544 231.086,423.441 C232.484,426.31 233.668,429.394 235.174,432.192 C235.928,432.299 236.788,432.264 237.649,432.264 L232.162,420.464 C232.951,420.356 233.704,420.105 234.457,419.818 C236.25,419.173 238.008,418.097 239.227,416.59 C240.411,415.156 240.949,413.219 240.267,411.462 C240.088,411.067 239.873,410.673 239.622,410.314 C238.115,408.449 235.82,407.552 232.843,407.373 C232.09,407.337 231.373,407.373 230.619,407.373 z M223.482,418.922 L225.527,409.274 L230.906,409.274 C232.628,409.274 234.457,409.31 236.035,410.063 C237.111,410.601 237.828,411.318 238.151,412.681 C238.546,414.941 236.788,416.949 234.887,417.882 C233.417,418.563 231.839,418.814 230.225,418.922 C229.579,418.958 228.97,418.922 228.324,418.922 z" fill="#000000"/>
      </g>
      <path d="M532.172,441.075 C528.765,442.223 526.183,445.2 525.071,448.571 C524.748,449.539 524.497,450.58 524.461,451.584 C524.389,453.7 524.82,455.888 526.326,457.466 C527.259,458.398 528.55,459.116 530.343,459.116 C532.674,459.151 534.468,457.394 535.615,455.493 C537.624,452.05 538.843,445.809 536.261,442.259 C535.006,440.322 531.096,437.74 531.096,435.301 C531.096,434.655 531.347,434.01 532.065,433.938 C532.28,433.938 532.531,433.974 532.746,434.046 C534.647,434.44 535.221,434.548 537.444,435.086 C538.198,435.265 539.13,434.404 538.879,433.615 C538.736,433.221 538.377,433.113 538.018,433.077 C537.552,432.97 535.615,432.575 535.293,432.539 C534.683,432.432 533.499,432.217 532.925,432.145 C531.849,432.109 530.666,432.503 529.984,433.364 C529.375,434.225 529.267,435.05 529.698,436.377 C530.271,438.063 531.276,439.569 532.172,441.075 z M532.997,442.617 C533.356,442.653 533.571,443.191 533.75,443.478 C534.288,444.447 534.755,445.451 535.041,446.527 C535.831,449.504 535.185,452.947 534.037,454.955 C533.32,456.21 532.208,457.358 530.666,457.322 C529.446,457.322 528.586,456.928 527.904,456.246 C526.398,454.74 526.541,452.229 527.008,449.898 C527.617,446.921 529.16,443.944 532.065,442.869 C532.352,442.761 532.71,442.617 532.997,442.617 z" fill="#000000"/>
      <g>
        <path d="M519.539,463.986 L512.783,451.19" fill-opacity="0" stroke="#000000" stroke-width="1" stroke-linecap="round" stroke-linejoin="round"/>
        <path d="M508.548,443.616 L509.63,452.091 L514.936,449.29 z M508.548,443.616" fill="#000000"/>
        <path d="M509.048,444.116 L510.13,452.591 L515.436,449.79 z M509.048,444.116" fill-opacity="0" stroke="#000000" stroke-width="1"/>
        <path d="M522.774,470.561 L521.692,462.086 L516.386,464.887 z M522.774,470.561" fill="#000000"/>
        <path d="M523.274,471.061 L522.192,462.586 L516.886,465.387 z M523.274,471.061" fill-opacity="0" stroke="#000000" stroke-width="1"/>
      </g>
    </g>
  </g>
</svg>
