<?xml version="1.0" encoding="UTF-8"?>
<!DOCTYPE svg PUBLIC "-//W3C//DTD SVG 1.1//EN" "http://www.w3.org/Graphics/SVG/1.1/DTD/svg11.dtd">
<svg version="1.1" xmlns="http://www.w3.org/2000/svg" xmlns:xlink="http://www.w3.org/1999/xlink" x="0" y="0" width="82.668" height="155.405" viewBox="0, 0, 82.668, 155.405">
  <defs>
    <linearGradient id="Gradient_1" gradientUnits="userSpaceOnUse" x1="204.98" y1="291.652" x2="199.928" y2="263.926">
      <stop offset="0" stop-color="#000000"/>
      <stop offset="0" stop-color="#DE89C6"/>
      <stop offset="0.598" stop-color="#FFFFFF"/>
    </linearGradient>
    <linearGradient id="Gradient_2" gradientUnits="userSpaceOnUse" x1="219.191" y1="263.712" x2="219.191" y2="254.485">
      <stop offset="0" stop-color="#FFFFFF"/>
      <stop offset="1" stop-color="#B0FB92"/>
    </linearGradient>
  </defs>
  <g id="Layer_1" transform="translate(-174.24, -231.595)">
    <path d="M187.914,264.884 C187.914,264.884 217,291.866 217,291.866 C217,291.866 216.799,263.712 216.799,263.712 C216.799,263.712 187.42,266.055 187.914,264.884 z" fill="url(#Gradient_1)"/>
    <g>
      <path d="M181.5,381.5 L211.136,351.864" fill-opacity="0" stroke="#000000" stroke-width="1"/>
      <path d="M213.257,353.985 L216.793,346.207 L209.015,349.743 z" fill="#000000" fill-opacity="1" stroke="#000000" stroke-width="1" stroke-opacity="1"/>
    </g>
    <g>
      <path d="M217.299,343.278 L217.299,301.366" fill-opacity="0" stroke="#000000" stroke-width="1"/>
      <path d="M220.299,301.366 L217.299,293.366 L214.299,301.366 z" fill="#000000" fill-opacity="1" stroke="#000000" stroke-width="1" stroke-opacity="1"/>
    </g>
    <path d="M217.299,345.5 L217.299,237.59" fill-opacity="0" stroke="#000000" stroke-width="1" stroke-dasharray="3,2"/>
    <g>
      <path d="M217.5,292.366 L188.16,265.695" fill-opacity="0" stroke="#000000" stroke-width="1"/>
      <path d="M190.178,263.475 L182.24,260.313 L186.142,267.915 z" fill="#000000" fill-opacity="1" stroke="#000000" stroke-width="1" stroke-opacity="1"/>
    </g>
    <path d="M217.168,263.899 C195.496,263.899 177.928,259.908 177.928,254.985 C177.928,250.062 195.496,246.072 217.168,246.072 C238.839,246.072 256.408,250.062 256.408,254.985 C256.408,259.908 238.839,263.899 217.168,263.899 z" fill-opacity="0" stroke="#000000" stroke-width="1"/>
    <path d="M181.5,259.641 L216.627,254.985" fill-opacity="0" stroke="#000000" stroke-width="1" stroke-dasharray="3,2"/>
    <path d="M218.5,254.985 L256.408,254.985" fill-opacity="0" stroke="#000000" stroke-width="1" stroke-dasharray="3,2"/>
    <path d="M249.037,241.654 L248.565,243.668 L249.193,243.68 L249.445,243.657 L249.503,243.518 C249.627,242.893 249.792,242.282 249.929,241.671 C250.389,241.68 251.135,241.374 251.374,241.267 C252.768,240.596 253.869,239.222 254.094,237.678 C254.24,236.593 253.885,235.484 252.991,234.811 C252.661,234.568 252.136,234.32 251.648,234.283 L252.272,231.617 L251.644,231.604 C251.574,231.603 251.449,231.573 251.392,231.627 C251.35,231.655 251.348,231.738 251.333,231.794 C251.303,231.947 250.802,234.043 250.802,234.043 C250.801,234.099 250.785,234.183 250.756,234.224 C250.699,234.293 250.546,234.29 250.476,234.302 C249.637,234.398 248.733,234.966 248.251,235.361 C246.975,236.453 246.144,238.32 246.795,239.965 C246.902,240.218 247.051,240.458 247.214,240.67 C247.624,241.139 248.285,241.584 249.037,241.654 z M250.589,234.96 L250.436,235.627 L249.204,240.96 C248.814,240.924 248.371,240.707 248.152,240.521 C247.451,239.977 247.329,239.04 247.457,238.22 C247.601,237.26 248.08,236.307 248.845,235.694 C249.312,235.326 249.89,235.03 250.589,234.96 z M250.096,240.977 L250.218,240.435 L250.476,239.338 L251.481,234.977 C251.843,235.012 252.23,235.201 252.464,235.359 C253.194,235.861 253.358,236.771 253.244,237.606 C253.064,238.998 252.215,240.32 250.853,240.796 C250.614,240.889 250.347,240.968 250.096,240.977 z" fill="#000000" id="Layer_1"/>
    <path d="M208.282,268.132 C207.404,268.243 206.72,268.968 206.232,269.652 C205.437,270.796 204.935,272.135 204.712,273.515 C204.6,274.171 204.531,275.064 204.628,275.733 C204.726,276.737 205.172,277.853 206.079,278.021 C206.204,278.034 206.316,278.034 206.441,278.034 C207.334,277.951 208.017,277.198 208.506,276.514 C209.245,275.482 209.691,274.296 209.956,273.069 C210.137,272.204 210.249,271.242 210.11,270.363 C210.012,269.373 209.524,268.285 208.631,268.146 C208.52,268.132 208.394,268.118 208.282,268.132 z M209.133,272.734 L205.758,272.734 C206.023,271.674 206.33,270.614 206.971,269.708 C207.264,269.303 207.669,268.885 208.185,268.829 C208.269,268.829 208.352,268.829 208.436,268.843 C208.896,268.927 209.105,269.359 209.217,269.764 C209.468,270.684 209.315,271.856 209.133,272.734 z M208.98,273.432 C208.924,273.794 208.812,274.171 208.701,274.52 C208.45,275.287 208.115,276.068 207.585,276.695 C207.236,277.1 206.678,277.504 206.121,277.267 C205.8,277.128 205.632,276.779 205.549,276.472 C205.34,275.789 205.367,275.078 205.451,274.38 C205.465,274.255 205.563,273.515 205.632,273.46 C205.688,273.404 205.814,273.432 205.883,273.432 z" fill="#000000" id="Layer_1"/>
    <path d="M182.475,259.141 C182.475,259.141 195.33,265.128 224.748,263.399 C254.166,261.67 255.908,254.485 255.908,254.485 C255.908,254.485 216.127,254.485 216.127,254.485 C216.127,254.485 182.228,259.141 182.475,259.141 z" fill="url(#Gradient_2)" opacity="0.469"/>
    <path d="M225.248,259.641 L245.766,244.18" fill-opacity="0" stroke="#8BD16B" stroke-width="1"/>
    <g id="Layer_1">
      <path d="M194.525,281.942 L194.511,281.942 L194.511,280.254 L192.726,280.254 L192.726,286.921 L194.581,286.921 L194.581,283.658 C194.581,283.42 194.581,283.183 194.651,282.96 C194.958,282.054 195.948,281.607 196.841,281.607 L196.841,280.185 C196.004,280.185 195.292,280.645 194.832,281.328 C194.721,281.51 194.581,281.719 194.525,281.942 z" fill="#000000"/>
      <path d="M199.615,282.158 L199.478,282.851 L200.171,282.851 L200.308,282.158 z M199.156,284.325 C199.136,284.481 199.088,284.638 199.058,284.794 C198.843,285.731 198.482,287.479 198.336,288.211 L198.111,289.256 C198.072,289.422 198.062,289.617 197.945,289.754 C197.672,290.027 197.115,290.154 196.617,289.998 C196.481,289.949 196.364,289.871 196.237,289.812 L195.973,290.359 C196.5,290.593 197.223,290.808 197.896,290.486 C198.267,290.33 198.59,289.978 198.717,289.617 C198.775,289.461 199.849,284.345 199.849,284.325 z" fill="#000000"/>
    </g>
    <g id="Layer_1">
      <path d="M226.391,325.698 L226.377,325.698 L226.377,324.01 L224.591,324.01 L224.591,330.677 L226.446,330.677 L226.446,327.413 C226.446,327.176 226.446,326.939 226.516,326.716 C226.823,325.809 227.813,325.363 228.706,325.363 L228.706,323.94 C227.869,323.94 227.158,324.401 226.698,325.084 C226.586,325.266 226.446,325.475 226.391,325.698 z" fill="#000000"/>
      <path d="M231.481,325.914 L231.345,326.607 L232.038,326.607 L232.175,325.914 z M231.023,328.081 C231.003,328.237 230.954,328.394 230.925,328.55 C230.71,329.487 230.349,331.235 230.202,331.967 L229.978,333.012 C229.939,333.178 229.929,333.373 229.812,333.509 C229.539,333.783 228.982,333.91 228.484,333.754 C228.347,333.705 228.23,333.627 228.103,333.568 L227.84,334.115 C228.367,334.349 229.089,334.564 229.763,334.242 C230.134,334.086 230.456,333.734 230.583,333.373 C230.642,333.217 231.716,328.101 231.716,328.081 z" fill="#000000"/>
      <path d="M233.541,329.967 C233.336,330.026 233.306,330.329 233.521,330.397 C233.58,330.417 233.638,330.407 233.697,330.407 L239.213,330.407 C239.34,330.407 239.526,330.446 239.633,330.348 C239.76,330.221 239.691,329.997 239.516,329.967 C239.399,329.938 239.262,329.958 239.135,329.958 L233.716,329.958 C233.658,329.958 233.599,329.948 233.541,329.967 z" fill="#000000"/>
      <path d="M241.655,326.856 L241.655,327.403 C242.143,327.403 242.622,327.325 243.071,327.129 L243.071,332.226 L241.714,332.226 L241.714,332.772 L245.131,332.772 L245.131,332.226 L243.774,332.226 L243.774,326.212 C243.715,326.212 243.647,326.202 243.598,326.221 C243.52,326.251 243.461,326.329 243.393,326.378 C242.993,326.709 242.29,326.856 241.655,326.856 z" fill="#000000"/>
    </g>
    <g id="Layer_1">
      <path d="M176.039,354.474 L176.025,354.474 L176.025,352.786 L174.24,352.786 L174.24,359.453 L176.095,359.453 L176.095,356.189 C176.095,355.952 176.095,355.715 176.165,355.492 C176.472,354.585 177.462,354.139 178.355,354.139 L178.355,352.716 C177.518,352.716 176.806,353.177 176.346,353.86 C176.235,354.042 176.095,354.251 176.039,354.474 z" fill="#000000"/>
      <path d="M181.13,354.69 L180.993,355.383 L181.687,355.383 L181.823,354.69 z M180.671,356.857 C180.652,357.013 180.603,357.17 180.574,357.326 C180.359,358.263 179.997,360.011 179.851,360.743 L179.626,361.788 C179.587,361.954 179.578,362.149 179.46,362.285 C179.187,362.559 178.631,362.686 178.133,362.53 C177.996,362.481 177.879,362.403 177.752,362.344 L177.488,362.891 C178.016,363.125 178.738,363.34 179.412,363.018 C179.783,362.862 180.105,362.51 180.232,362.149 C180.29,361.993 181.364,356.877 181.364,356.857 z" fill="#000000"/>
      <path d="M183.189,358.743 C182.984,358.802 182.955,359.105 183.17,359.173 C183.228,359.193 183.287,359.183 183.345,359.183 L188.862,359.183 C188.989,359.183 189.174,359.222 189.281,359.124 C189.408,358.997 189.34,358.773 189.164,358.743 C189.047,358.714 188.91,358.734 188.784,358.734 L183.365,358.734 C183.306,358.734 183.248,358.724 183.189,358.743 z" fill="#000000"/>
      <path d="M190.983,357.163 C191.139,356.597 191.393,355.982 191.989,355.757 C192.223,355.669 192.467,355.65 192.711,355.669 C193.219,355.708 193.736,355.913 194.029,356.343 C194.234,356.636 194.303,356.987 194.254,357.339 C194.137,358.266 193.307,358.862 192.623,359.389 C192.086,359.809 190.944,360.814 190.944,360.814 L190.758,360.971 C190.651,361.078 190.651,361.059 190.651,361.264 L190.651,361.644 L194.996,361.644 L194.996,361.039 L191.286,361.039 C191.666,360.707 192.779,359.77 193.111,359.526 C193.717,359.067 194.41,358.627 194.791,357.944 C195.22,357.163 194.957,356.148 194.283,355.601 C193.531,354.976 192.164,354.878 191.344,355.484 C191.042,355.708 190.807,356.069 190.651,356.421 C190.632,356.489 190.563,356.587 190.573,356.665 C190.593,356.724 190.651,356.772 190.69,356.821 C190.778,356.938 190.876,357.065 190.983,357.163 z" fill="#000000"/>
    </g>
  </g>
</svg>
